<svg  xmlns="http://www.w3.org/2000/svg">

    <symbol id="logo" viewBox="0 0 90 117">
        <circle cx="47.5" cy="62.5" r="42.5" fill="black"/>
                <path d="M0.904 93L31.336 25.8H40.84L71.368 93H61.288L34.12 31.176H37.96L10.792 93H0.904ZM13.864 76.2L16.456 68.52H54.28L57.064 76.2H13.864Z" />
                <path d="M67 93.5H61.5L60.5 91" />
                <path d="M67 93.5H61.5L60.5 91" />
                <path d="M66 93H71C83.3333 85.6667 99.9 62 67.5 26H59C71.5 39.6667 90.8 70.7 68 85.5" />
                <path d="M74.853 41.5052C74.4714 41.2906 74.5519 40.7279 74.1565 40.5302"  stroke-width="5" stroke-linecap="round"/>
                <path d="M64.9633 29.5261C65.2398 29.5569 65.1774 29.8052 65.3811 29.913C65.6241 30.0417 65.9847 30.0412 66.2478 30.1452C67.0187 30.45 66.7573 30.5451 67.0836 31.1976C67.55 32.1305 68.1565 32.95 68.5848 33.9138C68.9047 34.6335 69.6438 35.7651 70.326 36.2199C70.693 36.4645 70.9126 37.1472 71.2933 37.4735C71.7459 37.8614 71.9696 38.7123 72.3767 39.1682C72.8647 39.7148 73.3135 40.4422 73.7386 41.0564C74.1054 41.5861 74.4697 42.2677 74.8839 42.7279C75.1378 43.01 74.977 43.6264 75.3018 43.8732C75.8258 44.2714 76.0734 44.7979 76.3852 45.3435C76.9355 46.3065 77.6388 47.004 77.6388 48.1912C77.6388 48.6649 77.6225 49.1417 77.6388 49.6151C77.6831 50.8988 78.6453 51.9622 78.8924 53.1361C79.0154 53.7203 79.6215 54.1319 79.7204 54.676C79.7859 55.0363 79.842 55.2126 80.0687 55.504C80.3644 55.8842 80.1328 55.2838 80.1538 54.885C80.1963 54.0773 80.3772 53.2216 80.0764 52.4396C79.9548 52.1233 80.0974 51.7053 79.7978 51.4723C79.6171 51.3317 79.4295 51.1755 79.3413 50.9461C79.1572 50.4676 78.9132 50.0932 78.8924 49.5532C78.8832 49.3136 78.7531 49.13 78.7531 48.8877C78.7531 48.3275 79.2368 49.4077 79.2794 49.5222C79.6229 50.4471 79.173 51.5123 79.5115 52.4009C79.7806 53.1074 79.7367 53.8099 80.0687 54.5212C80.6416 55.749 80.658 57.3026 81.1211 58.5762C81.2 58.7932 81.3015 59.6521 81.3378 59.5899C81.4618 59.3773 81.7762 58.9972 81.8098 58.7619C81.852 58.4664 81.8165 58.0855 82.0961 57.9107C82.3134 57.7749 82.2464 56.7566 82.2354 57.0749C82.1982 58.1543 82.0961 59.2252 82.0961 60.3096C82.0961 61.0074 82.0735 61.6502 82.2973 62.3216C82.4354 62.7359 82.4298 63.7498 82.7926 63.9312"  stroke-width="4" stroke-linecap="round"/>
                <path d="M63.2917 28.2725H63.8489"  stroke-width="4" stroke-linecap="round"/>
                <path d="M80.9818 66.9956C81.8302 66.9956 81.5202 67.577 81.7866 68.1099C81.8553 68.2474 81.9376 68.8208 81.9878 68.8528C82.0994 68.9238 83.0048 67.5207 83.0867 67.398C83.2832 67.1032 84.0314 66.2731 84.0462 66.0205C84.0844 65.3713 83.6632 66.0205 83.2105 66.0205"  stroke-width="4" stroke-linecap="round"/>
                <path d="M79.3103 77.9997C79.3103 77.497 79.3301 76.3106 79.5889 75.8793C79.9028 75.3562 79.986 74.6608 80.3937 74.2078C80.7146 73.8513 80.9868 73.4085 81.1985 72.9852C81.3833 72.6156 81.8176 72.2308 81.8176 71.8012C81.8176 71.5329 81.3202 72.7798 81.4074 71.9946C81.4695 71.4355 81.7839 69.9444 82.3128 69.6422C82.6209 69.4661 82.5508 70.4595 82.2354 70.6172"  stroke-width="4" stroke-linecap="round"/>
                <path d="M69.0027 88.7251C70.009 88.6659 71.0256 87.9028 71.9588 87.5798C72.5261 87.3834 72.8545 86.7982 73.3827 86.4964C73.7307 86.2976 74.2534 85.9197 74.5434 85.6297C74.9016 85.2716 75.3988 85.1729 75.7584 84.6934C76.0566 84.2958 76.1955 83.8021 76.5245 83.432C76.9826 82.9166 77.685 82.105 77.8864 81.42C78.0479 80.871 78.7531 80.4655 78.7531 79.8801C78.7531 79.6512 78.9262 79.4898 78.8924 79.2533C78.8799 79.1655 78.3781 79.7521 78.3353 79.7949C78.085 80.0453 77.7847 80.2311 77.5305 80.4759C77.0391 80.9491 76.5116 81.3555 76.0292 81.8379C75.4955 82.3716 75.2042 83.0069 74.7756 83.6023C74.2926 84.273 73.4392 85.3786 72.7017 85.769C72.1915 86.0391 71.718 86.7063 71.301 87.1232C71.0004 87.4239 71.1166 88.295 70.8135 88.4465"  stroke-width="4" stroke-linecap="round"/>
                <path d="M69.9778 90.118C70.4444 90.118 71.1087 89.9556 71.2391 89.499C71.431 88.8274 72.4329 88.4638 72.8255 87.959C73.1425 87.5515 73.2851 87.0502 73.6303 86.6667C73.9984 86.2577 74.4497 85.9034 74.853 85.5214C75.2593 85.1364 75.663 84.7067 75.8977 84.1904C76.1642 83.604 76.9149 83.2844 77.0894 82.6737C77.1546 82.4454 77.6236 82.1746 77.809 82.0391C78.1461 81.7928 78.4434 81.3779 78.6138 80.9944C78.8744 80.4081 79.3409 80.0201 79.5889 79.4622C79.8456 78.8845 80.2619 78.3235 80.533 77.7211C80.6771 77.4007 80.8464 77.1103 80.9895 76.8002C81.1807 76.386 81.5944 76.1553 81.7866 75.771C81.9067 75.5308 81.8202 75.1996 81.9259 74.9352C82.0357 74.6608 82.1608 74.1916 82.2277 73.8905C82.3498 73.3409 82.3998 72.7679 82.5217 72.219C82.6667 71.5668 82.6899 71.2767 82.6533 70.6172C82.6048 69.7442 82.9319 68.9773 82.9319 68.1099C82.9319 67.2838 82.3978 66.6055 82.3747 65.8194C82.3631 65.4229 82.3747 65.0243 82.3747 64.6276C82.3747 64.2103 82.0961 63.9156 82.0961 63.5133"  stroke-width="4" stroke-linecap="round"/>
                <path d="M74.7524 47.4567C74.9158 48.0289 75.4817 48.5974 75.8686 49.0326C75.9532 49.1278 75.929 49.1494 75.854 49.0472C75.7172 48.8606 75.6059 48.5816 75.6059 48.3468C75.6059 48.1528 75.4758 48.3291 75.4418 48.4161C75.3141 48.7424 75.2776 49.0791 75.2776 49.4265C75.2776 49.5655 75.2776 50.3308 75.2776 49.8241C75.2776 49.5457 75.2776 49.2672 75.2776 48.9888C75.2776 48.407 75.0084 47.7784 74.5882 47.3582C74.486 47.256 74.2412 47.0109 74.4277 47.3217C74.5961 47.6024 74.7043 47.936 74.818 48.2446C74.945 48.5892 75.022 48.8505 75.0843 49.1931C75.0993 49.2755 75.212 49.764 75.212 49.463C75.212 48.8928 75.1463 48.3207 75.1463 47.7558C75.1463 47.4986 75.1092 47.2063 75.1609 46.9533C75.2033 46.7462 75.3544 46.4655 75.2339 46.2602C75.1038 46.0385 74.9017 45.8333 74.7195 45.6511C74.6421 45.5737 74.536 45.4549 74.4934 45.3556C74.4231 45.1917 74.2921 45.1754 74.1906 45.0419C73.8469 44.5896 73.1765 44.1471 73.1765 43.5171"  stroke-linecap="round"/>
                <path d="M68.5146 37.148C68.1544 37.148 68.2608 37.1606 68.4453 37.4836C68.6119 37.7752 68.7828 38.0388 68.9743 38.3153C69.1013 38.4988 69.3338 38.8198 69.4995 38.95C69.7426 39.141 69.8289 39.5343 70.0905 39.6942C70.3095 39.828 70.369 40.1372 70.5209 40.3325C70.6948 40.556 70.8442 40.7722 71.0097 41.0074C71.3203 41.4488 71.7936 41.8603 72.0311 42.3352C72.1637 42.6003 72.3225 42.8092 72.4907 43.0429C72.7072 43.3434 72.7965 43.7083 73.0051 44.0095C73.1918 44.2793 73.2438 44.6648 73.4392 44.947C73.5967 45.1746 73.7275 45.3643 73.8477 45.6182C73.9958 45.9308 74.0785 46.2648 74.3219 46.5083C74.3781 46.5645 74.6826 47.0955 74.5408 46.8001C74.2415 46.1767 74.0319 45.3282 73.41 44.9324C73.2246 44.8144 73.0884 44.5485 73.0415 44.3378C73.0162 44.2239 72.6179 43.572 72.6002 43.6119C72.4676 43.9101 72.6566 44.643 72.8154 44.9288C72.9497 45.1705 73.1006 45.381 73.2203 45.6328C73.3359 45.8759 73.5813 46.1655 73.7966 46.3295C73.9372 46.4367 73.9168 46.534 74.0301 46.6359C74.1381 46.7332 74.0957 46.9057 74.1614 47.0335C74.226 47.1591 74.3655 47.1935 74.4095 47.34C74.5434 47.7865 74.6028 48.1975 74.8509 48.6021C75.0483 48.9243 75.2694 49.1456 75.409 49.5068C75.5676 49.9173 75.584 50.5626 75.606 51.0024C75.6183 51.2487 75.7339 51.3639 75.8649 51.5605C76.0161 51.7872 76.1287 52.0069 76.2626 52.2353C76.5155 52.6667 76.4345 53.1749 76.6893 53.5996C76.7898 53.7671 76.8955 53.9441 76.9848 54.1176C77.068 54.2792 77.3029 54.5613 77.3131 54.745C77.3271 54.9964 77.5101 55.2127 77.5101 55.4381C77.5101 55.7851 77.6161 56.0952 77.6414 56.4376C77.6495 56.5463 77.9041 57.0894 77.9041 56.8461" stroke-linecap="round"/>
                <path d="M72.9795 43.4514C72.816 43.4514 72.4272 43.1793 72.2718 43.3347C71.9282 43.6783 73.8538 44.4202 73.8988 44.4363"  stroke-linecap="round"/>
                <path d="M79.5456 58.8816C79.2022 58.8614 78.992 58.1839 78.7941 57.9295C78.5014 57.5531 78.5292 56.9547 78.4293 56.5178C78.297 55.9389 78.4691 56.4894 78.5607 56.744C78.7577 57.2918 79.0173 58.0144 78.951 58.6116C78.9265 58.8315 78.8392 59.04 78.8269 59.2719C78.8131 59.535 78.8833 59.7624 78.889 60.0124C78.8959 60.3185 79.0092 60.6028 79.0203 60.9025C79.0291 61.1394 78.966 60.4307 78.9181 60.1984C78.8075 59.6608 78.5607 59.0709 78.5607 58.5241C78.5607 58.2452 78.4275 58.0483 78.3783 57.7799C78.3139 57.429 78.2669 57.5608 78.4439 57.8201C78.8946 58.48 79.2766 59.2073 79.6441 59.9139C80.0154 60.6279 80.2022 61.6312 80.2022 62.4272C80.2022 63.1345 80.4846 63.778 80.629 64.4664C80.6972 64.7916 81.3432 66.3727 80.8588 66.6149C80.6306 66.729 80.1165 66.3262 80.0745 66.137C79.9156 65.4221 79.8082 64.7565 79.8082 64.0067C79.8082 63.3212 80.0935 62.3964 79.7717 61.7706C79.7444 61.7175 79.5801 61.3439 79.5602 61.435C79.5245 61.5978 79.5996 61.8148 79.6441 61.9749C79.709 62.2088 79.6406 62.8656 79.4945 62.2959C79.4172 61.9944 79.3465 61.6973 79.2537 61.3986C79.0954 60.8884 79.362 61.8207 79.4106 61.9567C79.5441 62.3306 79.6112 62.5155 79.6112 62.916C79.6112 63.5532 79.6112 64.1903 79.6112 64.8275C79.6112 64.9736 79.451 65.9568 79.4434 65.9547C79.2652 65.9037 79.2829 64.2207 79.2829 63.9703C79.2829 63.3149 79.2829 62.6595 79.2829 62.0041C79.2829 61.9342 79.252 61.5153 79.3158 61.5153C79.504 61.5153 79.548 62.1796 79.5602 62.2521C79.6251 62.6393 79.6921 63.0282 79.728 63.4194C79.732 63.4639 79.7892 63.9078 79.6732 63.6565C79.5214 63.3276 79.5452 62.9615 79.4507 62.6169C79.3532 62.2613 79.3654 61.9386 79.1516 61.6393C78.9138 61.3064 79.1897 61.9857 79.2683 62.0989C79.3968 62.2839 79.4757 62.5317 79.4799 62.7555C79.4862 63.088 79.5916 63.3874 79.6076 63.7149C79.6465 64.5118 79.4799 65.3015 79.4799 66.0969C79.4799 66.5184 79.4504 67.0081 79.7425 67.3518C79.9293 67.5715 79.8892 67.9048 79.7717 68.1397C79.6443 68.3945 79.3979 68.6282 79.2319 68.862C79.1106 69.0325 79.0173 69.2483 78.9692 69.4529C78.9531 69.5212 78.9674 69.8708 78.951 69.6243C78.9055 68.9426 78.5607 68.3646 78.5607 67.6728C78.5607 67.5531 78.5826 67.3276 78.7722 67.4612C79.1453 67.724 79.2173 68.3683 79.2173 68.7853C79.2173 69.7848 78.9544 70.9865 79.1808 71.9772C79.3418 72.6815 79.4385 71.9181 79.5237 71.5978C79.6641 71.07 79.8973 70.5832 80.0344 70.0511C80.0796 69.8755 80.1423 69.0467 80.3663 68.9969C80.5865 68.948 80.3979 69.5684 80.37 69.6353C79.9638 70.6076 79.3036 71.3555 79.2829 72.4076C79.2765 72.7351 78.9633 72.976 78.8926 73.294C78.8857 73.3251 79.1778 72.7508 79.2063 72.5608C79.2378 72.3511 79.2173 72.1233 79.2173 71.9115C79.2173 71.656 79.1471 71.9166 79.0859 72.0428C78.971 72.2799 78.9147 72.337 78.7576 72.5098C78.626 72.6545 78.4293 73.29 78.4293 72.8636C78.4293 72.2888 78.3809 71.6818 78.743 71.1892C78.8664 71.0215 78.8233 72.0184 78.8233 72.145C78.8233 72.5572 78.8827 73.0153 78.8197 73.4254C78.7957 73.581 78.6478 73.7037 78.557 73.823C78.36 74.0815 78.2433 74.3398 77.9989 74.5598C77.6919 74.8361 77.7499 75.1028 77.6998 75.4535C77.5921 76.2071 77.2164 77.0012 76.6784 77.551C76.5032 77.7301 76.1519 77.8811 76.1312 78.1711C76.1063 78.5202 76.4697 78.3111 76.6529 78.2149C76.8858 78.0926 77.4315 77.804 77.5137 77.5437C77.6452 77.1275 77.7861 76.7146 77.9332 76.3035C78.0243 76.049 78.1667 75.7598 78.1667 75.4827C78.1667 75.0018 78.1223 74.6009 78.2178 74.1075C78.2986 73.69 78.652 73.4611 78.7613 73.0606C78.8441 72.7568 79.2613 72.6736 79.4434 72.4149C79.7256 72.0142 79.8878 71.5365 80.1438 71.1163C80.8668 69.9294 81.3247 68.6237 81.6066 67.2642C81.7726 66.4632 81.9813 65.7138 82.0261 64.8859C82.0656 64.1554 81.9773 63.4161 82.1063 62.6935C82.179 62.2864 82.2376 61.9489 82.2376 61.5372C82.2376 61.0863 82.1014 60.7794 81.975 60.337C81.721 59.4479 81.113 58.6789 80.888 57.7653C80.6681 56.8732 80.1148 56.0422 79.7425 55.2046"  stroke-linecap="round"/>
                <path d="M76.9192 78.7767C76.7517 78.7767 76.4876 79.0313 76.3647 79.1378C76.162 79.3135 75.8388 80.0449 75.8795 79.7798C75.9379 79.4007 76.0948 79.0211 76.3246 78.7147C76.5654 78.3936 76.2971 78.9754 76.1239 79.1013C75.8526 79.2987 75.5324 79.3418 75.3287 79.6303C75.1465 79.8884 74.8122 79.9802 74.6356 80.2723C74.3226 80.79 73.9106 81.2256 73.5705 81.7168C73.297 82.1118 72.9218 82.4403 72.6184 82.8112C72.5704 82.8698 72.322 83.0895 72.5382 82.9315C72.8587 82.6973 73.1709 82.513 73.5231 82.3369C73.9004 82.1483 74.0907 81.7863 74.4277 81.5673C74.6847 81.4002 74.8315 81.2071 74.9457 80.9216C75.1452 80.4228 75.4886 79.6527 75.854 79.2874C75.9361 79.2053 75.9991 79.0774 76.051 78.9737C76.1468 78.7821 76.096 79.0024 76.0145 79.0904C75.9434 79.1672 75.7587 79.2179 75.7227 79.302C75.6205 79.5404 76.1891 79.0673 76.3939 78.908"  stroke-linecap="round"/>
                <path d="M72.126 83.2416C71.9712 83.435 71.9111 83.5578 71.6663 83.6866C71.4524 83.7992 71.2726 83.9767 71.0754 84.1316C70.7229 84.4086 70.4553 84.7882 70.127 85.0801C69.9586 85.2297 69.7988 85.3806 69.6309 85.5397C69.4758 85.6866 69.2516 85.9123 69.0691 86.0285C68.9526 86.1026 68.1903 86.7887 68.1863 86.7216C68.1642 86.3446 67.6098 86.186 68.055 85.868C68.1133 85.8263 68.2778 85.8083 68.3031 85.7367C68.3286 85.6644 68.0862 85.5761 68.2812 85.7002C68.5832 85.8924 68.9071 86.067 69.2004 86.2765C69.4127 86.4281 69.5953 86.4279 69.4485 86.7216C69.3723 86.8739 69.2762 87.1812 69.5433 87.1812C69.9181 87.1812 70.3666 87.1047 70.7179 86.9769C70.9222 86.9026 71.1428 86.6417 71.338 86.5246"  stroke-linecap="round"/>
                <path d="M70.8784 91.8431C70.6936 91.8431 71.2488 91.9452 71.4292 91.9051C71.5146 91.8861 71.5676 91.6297 71.6663 91.5659C71.7766 91.4945 71.8739 91.3692 71.991 91.2886C72.3731 91.0259 72.9254 91.3128 73.2422 90.8728C73.4408 90.597 73.6443 90.4842 73.928 90.3037C74.2053 90.1272 74.2678 89.7796 74.5225 89.5815C74.709 89.4365 74.9392 89.2718 75.0807 89.0708C75.2838 88.7821 75.5692 88.645 75.8029 88.3996C76.0454 88.1449 76.1485 87.8058 76.361 87.546C76.4443 87.4443 76.576 87.393 76.6711 87.2979C77.0321 86.9369 76.5727 87.2195 76.3537 87.3089C76.0819 87.4198 75.6132 87.4399 75.4418 87.7065C75.3202 87.8956 75.208 88.0989 75.0807 88.2828C75.0646 88.3061 74.7693 88.592 74.9639 88.5163C75.1985 88.4251 75.4888 88.3252 75.6424 88.115C76.0224 87.5951 76.6218 87.2086 77.076 86.7544C77.4272 86.4032 77.5485 85.9539 77.7436 85.5105C77.8713 85.2201 78.1756 84.8742 78.3965 84.6533C78.5111 84.5387 78.7318 83.9869 78.7722 84.2703C78.8305 84.678 78.8723 85.2732 78.4804 85.5397C78.2283 85.7112 77.9326 85.8807 77.7764 86.1671C77.6848 86.3351 77.5414 86.4911 77.459 86.6559C77.2906 86.9928 77.9667 86.094 78.2652 85.8644C78.464 85.7115 78.485 85.4035 78.63 85.2041C78.7794 84.9987 78.8523 84.785 78.9036 84.5402C78.9744 84.2016 79.0014 83.935 79.1151 83.6064C79.2225 83.2962 79.3897 82.7379 79.6404 82.523C79.8989 82.3014 80.0052 82.9496 80.0052 83.1467C80.0052 83.4129 79.6996 83.6009 79.5966 83.8325C79.4797 84.0957 79.4361 84.3862 79.2829 84.635C78.9554 85.1672 79.211 84.3192 79.3632 84.1462C79.7089 83.7534 79.9421 83.1694 80.0709 82.6543C80.1777 82.2269 80.5562 81.8675 80.8223 81.5381C80.9557 81.3729 81.1271 81.2275 81.2199 81.0347C81.2873 80.8948 81.474 80.1388 81.6321 80.1191C81.7817 80.1004 81.5152 80.3973 81.4461 80.5313C81.3121 80.7908 81.2116 81.0795 81.1068 81.352C81.0311 81.5489 80.8723 81.6879 80.7968 81.8955C80.6911 82.186 80.5803 82.4748 80.4794 82.7674C80.4081 82.9742 80.2996 83.1781 80.2022 83.3729"  stroke-linecap="round"/>
                <path d="M85.258 67.4174C85.258 68.1858 84.7984 68.832 84.7984 69.6353C84.7984 69.9059 84.8587 70.2559 84.7473 70.5035C84.6666 70.6829 84.5357 70.8062 84.5357 71.0069C84.5357 71.3218 84.5357 71.6367 84.5357 71.9516C84.5357 72.7466 84.5627 71.5461 84.6379 71.3206C84.7806 70.8925 84.9918 70.5107 85.1924 70.1095C85.3512 69.7917 85.2185 69.4174 85.1121 69.11C85.1035 69.0851 84.9917 68.895 85.0063 69.0115C85.0426 69.3019 85.1992 69.6094 85.2835 69.8906C85.3312 70.0494 85.2773 70.2624 85.3565 70.405C85.6239 70.8863 85.0618 71.6175 84.8969 72.0793C84.7097 72.6034 84.7337 73.1345 84.3388 73.5859C84.1035 73.8548 83.8796 74.1086 83.6785 74.4103C83.2847 75.0009 83.2999 75.6642 83.1423 76.3472C83.0447 76.7701 83.0838 77.1676 82.8286 77.5437C82.4891 78.044 82.1712 78.5244 81.8802 79.0649C81.6451 79.5015 81.3716 79.9251 81.1542 80.3598C80.693 81.2823 82.0854 80.6504 82.4565 80.5641C82.9483 80.4497 82.6316 80.0339 82.6316 79.6959C82.6316 79.2292 82.9309 78.7084 83.2371 78.3681C83.6428 77.9174 83.6918 77.2046 83.9959 76.6901C84.236 76.2837 84.5255 75.9156 84.7656 75.5155C84.8792 75.3262 84.9004 75.1424 84.9443 74.9392C84.9655 74.8412 85.0245 74.0373 84.9005 74.2498C84.7113 74.5741 84.7259 74.987 84.4701 75.2967C84.311 75.4893 84.1859 75.6608 84.0324 75.8511C83.3424 76.706 82.8741 77.588 82.3252 78.5432C82.1968 78.7665 80.7933 80.8051 80.8952 80.907C81.1146 81.1264 81.6409 80.5996 81.778 80.451C82.1002 80.102 82.0974 79.6495 82.3179 79.2509C82.6233 78.6988 82.8172 78.1092 82.9891 77.5C83.1815 76.8177 83.466 76.0784 84.0725 75.6615C84.4067 75.4317 84.4653 74.9395 84.3059 74.5854C84.1604 74.2619 84.2277 73.9714 84.3388 73.626C84.5107 73.0912 84.5779 72.5977 84.6671 72.0428C84.7738 71.379 84.813 70.6774 85.123 70.0767C85.2491 69.8324 85.2921 69.5199 85.4696 69.307C85.7756 68.9398 85.8884 68.178 85.7468 67.7129C85.6078 67.256 85.5207 66.8205 85.5207 66.3377C85.5207 65.9506 85.6864 65.0328 85.3237 64.791"  stroke-linecap="round"/>
                <path d="M80.2022 48.6385C80.742 48.6601 80.7663 49.4998 81.1543 49.7584C81.258 49.8276 81.2257 49.9395 81.2819 50.032C81.383 50.1985 81.5556 50.3541 81.6321 50.5281C81.676 50.6278 81.8376 51.2019 81.8437 50.9075C81.85 50.6059 81.7936 50.4332 81.7124 50.1487C81.6558 49.9508 81.4497 49.7959 81.4497 49.587C81.4497 49.3573 81.2442 48.8339 81.6467 49.3462C81.8597 49.6173 81.8437 49.7403 81.8437 50.0831C81.8437 50.6661 82.109 51.2663 82.3398 51.7939C82.4443 52.0327 82.5281 52.2745 82.617 52.5198C82.759 52.9117 82.731 52.8673 82.814 52.3885C82.9076 51.8482 83.2495 51.0949 82.8286 50.674C82.4624 50.3078 82.0601 49.9704 81.913 49.4557C81.8892 49.3723 81.8352 49.2684 81.8802 49.4484C81.9815 49.8536 82.1092 50.2528 82.2741 50.6375C82.565 51.3163 82.8101 51.9994 83.0548 52.6986C83.1405 52.9435 83.3402 53.316 83.3539 53.5631C83.3705 53.8628 83.3539 54.1675 83.3539 54.4677C83.3539 54.9805 83.4294 54.1612 83.5217 53.9899C83.7595 53.5483 83.8135 53.1717 83.8135 52.673C83.8135 52.5486 83.8408 52.4623 83.6968 52.4469C83.5892 52.4353 83.4892 52.386 83.3977 52.3301C83.3938 52.3278 83.276 52.2254 83.2736 52.228C83.0847 52.4379 83.2226 53.2006 83.2226 53.4464C83.2226 53.8403 83.2226 54.2343 83.2226 54.6282C83.2226 54.7745 83.2269 54.9205 83.208 55.066C83.1984 55.1392 82.9562 55.8584 82.9453 55.8393C82.7509 55.499 82.6377 54.9833 82.5003 54.6064C82.4076 54.3522 82.2648 54.0244 82.3179 53.7455C82.424 53.1886 82.2143 53.7181 82.2449 53.9789C82.3302 54.7039 82.6265 55.4549 83.1532 55.9816C83.5795 56.4078 83.7584 55.698 83.8281 55.387C83.9255 54.9521 83.9773 54.5108 84.0616 54.0738C84.1185 53.7785 84.1736 53.8789 84.1929 54.0811C84.2287 54.4574 84.1096 54.8204 84.0616 55.19C84.0165 55.5372 83.9472 55.7262 83.8099 55.2885C83.676 54.8619 83.5558 54.4776 83.3575 54.0811C83.2177 53.8014 83.1451 53.4883 82.8687 53.3041C82.8275 53.2766 82.6895 53.1615 82.7082 53.3114C82.7492 53.6389 83.3393 53.7971 83.5217 54.0957C83.7374 54.4487 83.8265 54.8649 84.0433 55.2119C84.2001 55.4628 84.0828 55.99 84.1564 56.2843C84.1889 56.4143 84.3317 56.587 84.3388 56.7148C84.3729 57.3295 84.4674 57.9052 84.5868 58.5168C84.6134 58.6527 84.6854 59.2008 84.6634 58.7503C84.6367 58.2024 84.5597 57.6563 84.5394 57.1087C84.5135 56.408 84.7334 55.7178 84.6634 55.0186C84.6404 54.7877 84.4089 54.3542 84.2221 54.2197C83.9584 54.0298 83.9058 53.4593 83.8281 53.1764C83.7235 52.7958 83.4527 52.4871 83.321 52.1186C83.2892 52.0294 83.2458 51.8096 83.2262 52.0638C83.1898 52.5371 83.383 53.0947 83.518 53.5448C83.592 53.7914 83.6165 53.935 83.6165 54.2197C83.6165 54.7212 83.7115 55.1177 83.7989 55.5986C83.8878 56.0873 83.7613 56.5875 83.8792 57.0796C83.9679 57.45 84.1338 57.7932 84.233 58.1593C84.3532 58.603 84.2862 59.0421 84.3497 59.4871C84.3985 59.8287 84.5437 60.149 84.6051 60.4866C84.626 60.6015 84.7739 60.6417 84.7948 60.7565C84.9069 61.3732 85.4305 61.9717 85.455 62.6096C85.4775 63.1956 85.3809 63.8483 85.0756 64.3533C84.6079 65.1269 85.3237 63.5492 85.3237 64.2001C85.3237 64.2916 85.4603 64.8135 85.5207 64.6524C85.8743 63.7093 85.7771 62.3297 85.7833 61.3548C85.7869 60.7839 85.9588 60.2899 85.8526 59.706C85.8061 59.45 85.5323 59.1019 85.3966 58.8597C85.2233 58.5502 84.8752 59.3769 84.8349 59.5455C84.7695 59.819 84.7327 60.0897 84.7327 60.3699C84.7327 60.7099 84.6373 61.0275 84.7072 61.3694C84.7882 61.7653 84.9344 62.1668 85.0574 62.5513C85.2507 63.1553 85.4361 63.9139 85.0538 64.47C84.8886 64.7102 84.8699 63.711 84.8787 63.5872C84.9081 63.1705 84.9529 62.7667 84.9151 62.347C84.8644 61.7834 84.7467 61.2191 84.6343 60.6653C84.6309 60.6488 84.4956 60.0586 84.4409 60.1182C84.2937 60.2788 84.301 60.8422 84.2695 61.0374C84.1805 61.5877 84.1064 62.1408 84.0105 62.6899C83.9783 62.8738 83.9522 63.3099 83.8208 63.4742C83.6998 63.6254 83.8317 63.0866 83.8536 62.8942C83.9032 62.4589 83.9713 62.024 84.0433 61.5919C84.1027 61.2356 84.1857 60.8625 84.2877 60.5158C84.3617 60.2644 84.5796 60.9182 84.5868 60.9389C84.7378 61.3686 85.0204 60.9877 85.1778 60.7201C85.3239 60.4717 85.2341 60.2975 85.1267 60.0489C84.734 59.1394 83.7467 58.6461 83.0256 58.028"  stroke-linecap="round"/>
                <path d="M72.6512 36.8197C73.0741 36.8197 73.2791 36.9074 73.6507 37.0313C73.9056 37.1162 73.9925 37.5417 74.0812 37.79C74.1696 38.0376 74.3308 38.3327 74.4569 38.5597C74.5023 38.6415 74.4736 38.2905 74.5554 38.1986C74.7615 37.9667 74.621 37.0558 74.621 36.7613C74.621 36.2072 74.805 37.1255 74.8691 37.2793C75.0423 37.695 75.1083 38.1816 75.2412 38.6181C75.3136 38.856 75.3808 39.1068 75.5549 39.3002C75.6387 39.3933 75.7066 39.76 75.7664 39.5993C75.9335 39.1503 76.0152 38.1691 75.657 37.7535C75.5158 37.5898 75.5245 37.3783 75.4017 37.2027C75.3088 37.0701 74.9562 36.0731 75.0551 36.7103C75.1417 37.2685 75.3397 37.7788 75.6424 38.2496C75.914 38.672 75.8952 39.2476 76.1677 39.6686C76.242 39.7835 76.4023 39.8315 76.4595 39.9532C76.5656 40.1786 76.6518 40.4019 76.7878 40.6134C76.9894 40.9271 76.9363 40.4559 76.8863 40.2961C76.7996 40.0185 76.8788 39.7232 76.7878 39.4388C76.7198 39.2264 76.5252 39.1231 76.5252 38.888C76.5252 38.8246 76.512 38.6807 76.5325 38.8698C76.5887 39.3895 76.6226 39.985 76.8389 40.4675C77.085 41.0165 77.1448 41.6564 77.2985 42.2403C77.3333 42.3725 77.4206 42.4413 77.4481 42.565C77.4814 42.715 77.6619 42.8786 77.7435 43.0027C77.9673 43.3428 78.1206 43.7147 78.298 44.0788C78.4585 44.4083 78.4763 44.2594 78.4986 43.9694C78.513 43.7823 78.6037 43.5569 78.5461 43.3712C78.4957 43.2088 78.4293 43.071 78.4293 42.8969C78.4293 42.7452 78.313 42.6105 78.2725 42.4665C78.2175 42.271 78.2672 42.068 78.2178 41.8756C78.1808 41.7317 78.057 41.622 77.9843 41.4962C77.8532 41.2693 77.7703 40.9839 77.6815 40.7374C77.5189 40.2857 77.5864 39.7851 77.2329 39.4315C76.8529 39.0515 76.7742 38.4687 76.4887 38.0016C76.1493 37.4462 76.2687 38.1081 76.3282 38.4831C76.443 39.2065 76.8157 39.7532 77.0213 40.4383C77.1927 41.0099 77.3602 41.5677 77.7217 42.0543C78.1875 42.6815 78.7172 43.2541 79.1151 43.9329C79.7015 44.9333 79.9527 46.1036 80.3043 47.1904C80.4409 47.6126 80.7012 47.8609 80.9098 48.23C81.1657 48.6827 81.1965 49.3965 81.6102 49.7512C81.6633 49.7967 81.6921 49.8743 81.7087 49.9408C81.8177 50.3768 81.7189 49.0358 81.6321 48.5948C81.3992 47.4117 80.4752 46.2852 79.8666 45.2972C79.5704 44.8164 78.9865 43.0328 78.495 44.2685C78.3448 44.6461 78.3318 45.0773 78.4585 45.465C78.5186 45.649 78.6627 45.7258 78.7321 45.8954C78.8425 46.1653 79.1516 46.4035 79.1516 46.6724C79.1516 46.6919 79.166 47.0618 79.2464 47.0044C79.3667 46.9185 79.2317 46.4316 79.2027 46.304C79.0629 45.6891 79.1982 44.9916 78.9911 44.3998C78.9654 44.3264 78.8788 44.2651 78.9072 44.4071C79.0175 44.9587 79.3984 45.4531 79.7425 45.8808C80.0175 46.2225 80.3416 46.5208 80.5633 46.9059C80.9909 47.6486 81.2157 48.5692 81.7817 49.2295C82.3962 49.9465 82.0954 48.2957 82.0407 48.0768C81.8186 47.1886 81.279 46.4113 81.0193 45.5598C80.9515 45.3376 80.7397 45.2595 80.629 45.0601C80.4581 44.7526 80.2546 44.4594 80.1037 44.1408C79.9581 43.8336 79.7148 43.5143 79.5164 43.2252C79.3239 42.9447 79.2013 42.6321 78.9874 42.368C78.7717 42.1015 78.4659 41.6028 78.1083 41.5327C77.5209 41.4175 76.9987 41.2846 76.3939 41.2846"  stroke-linecap="round"/>
                <path d="M61.8829 27.1676C61.6331 27.1676 61.4327 27.1095 61.2409 26.956C61.0538 26.8064 60.8455 26.7511 60.6682 26.6131C60.2409 26.2808 60.654 27.5258 60.6646 27.547C60.8642 27.9462 61.1769 28.2951 61.54 28.5465C61.775 28.7092 61.8278 28.7837 61.8173 28.4151C61.8042 27.9576 61.5181 27.5677 61.489 27.1165C61.4734 26.8758 61.5588 26.4012 61.9157 26.6788C62.109 26.8291 62.1898 26.9866 62.3571 27.1749C62.5583 27.4012 62.848 27.5702 63.032 27.795C63.1644 27.9568 63.3511 28.1386 63.4296 28.3312C63.6403 28.8486 63.6206 29.4601 63.9184 29.9399C64.3321 30.6065 65.0152 31.1032 65.2352 31.8733C65.4934 32.7769 65.2253 31.8548 64.9398 31.6471C64.9007 31.6186 64.8178 31.637 64.8522 31.6982C64.8954 31.775 65.012 31.7885 65.0674 31.8696C65.2742 32.1718 65.3765 32.5088 65.5964 32.7998C66.0251 33.3672 66.4135 33.9495 66.7454 34.558C66.9765 34.9816 67.7324 35.9004 68.252 35.9004"  stroke-linecap="round"/>
                <path d="M67.661 29.4001C67.661 29.0027 67.9839 28.4097 68.3906 28.8165C68.6659 29.0917 69.0887 29.3279 69.2223 29.7138C69.2995 29.9369 69.4849 30.0348 69.5944 30.2537C69.8562 30.7773 69.4329 29.836 69.3427 29.7065C69.1634 29.4494 68.9807 29.216 68.8429 28.9405C68.722 28.6987 68.4841 28.5092 68.4161 28.251C68.3586 28.0326 68.3147 27.9977 68.1717 27.8388C67.9003 27.5372 67.6782 27.1302 67.3218 26.9342C66.9542 26.732 66.6602 26.6424 66.2311 26.6424C66.0788 26.6424 65.4942 26.5466 65.4942 26.7409C65.4942 27.0366 65.7562 27.1244 65.9174 27.3136C66.2974 27.7597 67.1517 27.7011 67.4422 28.2292C67.5946 28.5064 67.8262 28.7791 68.055 28.9952C68.1538 29.0885 68.2719 29.1859 68.3906 29.2542C68.467 29.2982 68.2267 28.7804 68.2228 28.7727C68.0749 28.4813 67.8814 28.1394 67.6464 27.9045C67.3829 27.641 67.0295 27.4793 66.7564 27.2114C66.5178 26.9775 66.2168 26.6424 65.8481 26.6424C65.5361 26.6424 65.3664 26.5529 65.0857 26.4454C65.0006 26.4128 64.2462 26.1159 64.4473 26.3505C64.5837 26.5097 64.8924 26.7514 65.0857 26.8248C65.7743 27.086 66.3881 27.4353 67.0518 27.7476C67.3989 27.911 67.6107 28.1328 67.7924 28.4809C68.1543 29.1746 68.884 29.5372 69.2369 30.2537C69.3973 30.5794 69.6002 30.8697 69.7768 31.1875C69.965 31.5264 70.0882 31.9265 70.2218 32.2892C70.3367 32.601 70.5167 32.8294 70.7106 33.0917C70.8426 33.2703 70.8555 32.8858 70.8638 32.8144C70.9065 32.4464 70.8155 32.1173 70.6851 31.7748C70.4704 31.2114 70.2442 30.6277 69.8607 30.1588C69.7593 30.0349 69.5715 29.9071 69.5652 29.743C69.5559 29.503 69.5437 29.475 69.733 29.6299C70.1261 29.9516 70.3774 30.4735 70.6303 30.9103C70.7744 31.1592 71.1036 31.3982 71.1994 31.6617C71.2541 31.8122 71.2929 31.9515 71.3526 32.1068C71.4732 32.4203 71.5933 32.8727 71.8305 33.1099C72.1802 33.4597 72.5391 33.7285 72.8117 34.1568C73.0547 34.5386 73.1193 35.1177 73.5048 35.3898C73.6256 35.475 73.7774 35.8285 73.8659 35.9661C73.9738 36.134 74.0543 36.3157 74.1468 36.4914C74.3193 36.8191 74.3584 35.9326 74.3584 35.8202C74.3584 35.5752 74.3726 35.3911 74.2307 35.1782C74.1197 35.0117 73.9616 34.8232 73.8842 34.6529C73.5887 34.0028 73.2347 33.4324 72.8446 32.8473C72.6737 32.591 72.4231 32.3299 72.2208 32.0995C72.0466 31.9011 71.9946 32.5319 71.9946 32.6248C71.9946 33.0321 71.8829 33.6507 72.0931 34.0292C72.1714 34.1702 72.1784 34.3572 72.2244 34.5107C72.2864 34.7173 72.4172 34.8839 72.5053 35.0761C72.5515 35.1768 72.5794 35.33 72.5856 35.4409C72.5872 35.4701 72.2347 35.065 72.1697 34.9922C71.8299 34.6119 71.4122 34.2687 71.1812 33.8066C71.1121 33.6686 71.0601 33.5349 70.9769 33.4054C70.8378 33.189 70.8784 33.572 70.8784 33.6534C70.8784 34.0599 70.9065 34.4595 71.0535 34.8426C71.2665 35.3979 71.6666 35.6401 72.1186 35.9953C72.3752 36.1969 72.5529 36.4819 72.8482 36.6373C72.9052 36.6673 73.0454 36.8078 73.1108 36.7905C73.2309 36.7589 73.2422 36.3675 73.2422 36.2616C73.2422 36.0409 72.9955 35.8975 72.8628 35.7546C72.7068 35.5866 72.1259 35.2061 72.1259 34.9812"  stroke-linecap="round"/>
                <path d="M65.5 93.5C62.3 93.5 64.5 93.5 66 93.5H61.5L60.5 91" stroke="black"/>
                <path d="M60.5 91L61.5 93.5H67" stroke="black"/>
                <path d="M69.0239 85.9493C69.0285 85.8068 69.0594 85.6652 69.0594 85.5236"  stroke-linecap="round"/>
                <path d="M61 91L62 93H67L61 90L62 91L61.5 91.5" />
                <path d="M61.1108 90.838C61.0548 90.838 61.0504 90.9078 61.0504 90.9589" />
                <path d="M61.0201 91.0647C61.0201 90.9872 61.0352 90.9138 61.0352 90.838" />
                <path d="M61.0654 90.9286C61.0654 90.9599 61.0695 90.9832 61.047 91.0076C61.0344 91.0212 60.987 91.1143 61.0201 91.0647"  stroke-linecap="round"/>
                <path d="M61.2015 90.8077C61.1045 90.8077 60.9597 90.7423 60.9597 90.8984"  stroke-linecap="round"/>
                <path d="M60.9143 90.8984C60.9282 90.9002 60.9243 90.9033 60.9294 90.9136"  stroke-linecap="round"/>   
    </symbol>
    
    <symbol id="facebook" viewBox="0 0 11 20">
        <path d="M9.11999 3.32003H11V0.14003C10.0897 0.045377 9.17514 -0.00135428 8.25999 2.98641e-05C5.53999 2.98641e-05 3.67999 1.66003 3.67999 4.70003V7.32003H0.609985V10.88H3.67999V20H7.35998V10.88H10.42L10.88 7.32003H7.35998V5.05003C7.35998 4.00003 7.63999 3.32003 9.11999 3.32003Z" />
    </symbol> 

    <symbol id="instagram" viewBox="0 0 20 20">
        <path d="M15.34 3.46C15.1027 3.46 14.8707 3.53038 14.6733 3.66224C14.476 3.79409 14.3222 3.98151 14.2313 4.20078C14.1405 4.42005 14.1168 4.66133 14.1631 4.89411C14.2094 5.12689 14.3236 5.34071 14.4915 5.50853C14.6593 5.67635 14.8731 5.79064 15.1059 5.83694C15.3387 5.88324 15.5799 5.85948 15.7992 5.76866C16.0185 5.67783 16.2059 5.52402 16.3378 5.32668C16.4696 5.12935 16.54 4.89734 16.54 4.66C16.54 4.34174 16.4136 4.03652 16.1885 3.81147C15.9635 3.58643 15.6583 3.46 15.34 3.46ZM19.94 5.88C19.9206 5.0503 19.7652 4.2294 19.48 3.45C19.2257 2.78313 18.83 2.17928 18.32 1.68C17.8248 1.16743 17.2196 0.774176 16.55 0.53C15.7727 0.236161 14.9508 0.07721 14.12 0.0599999C13.06 -5.58794e-08 12.72 0 10 0C7.28 0 6.94 -5.58794e-08 5.88 0.0599999C5.04915 0.07721 4.22734 0.236161 3.45 0.53C2.78168 0.776649 2.17693 1.16956 1.68 1.68C1.16743 2.17518 0.774176 2.78044 0.53 3.45C0.236161 4.22734 0.07721 5.04915 0.0599999 5.88C-5.58794e-08 6.94 0 7.28 0 10C0 12.72 -5.58794e-08 13.06 0.0599999 14.12C0.07721 14.9508 0.236161 15.7727 0.53 16.55C0.774176 17.2196 1.16743 17.8248 1.68 18.32C2.17693 18.8304 2.78168 19.2234 3.45 19.47C4.22734 19.7638 5.04915 19.9228 5.88 19.94C6.94 20 7.28 20 10 20C12.72 20 13.06 20 14.12 19.94C14.9508 19.9228 15.7727 19.7638 16.55 19.47C17.2196 19.2258 17.8248 18.8326 18.32 18.32C18.8322 17.8226 19.2283 17.2182 19.48 16.55C19.7652 15.7706 19.9206 14.9497 19.94 14.12C19.94 13.06 20 12.72 20 10C20 7.28 20 6.94 19.94 5.88ZM18.14 14C18.1327 14.6348 18.0178 15.2637 17.8 15.86C17.6403 16.2952 17.3839 16.6884 17.05 17.01C16.7256 17.3405 16.3332 17.5964 15.9 17.76C15.3037 17.9778 14.6748 18.0927 14.04 18.1C13.04 18.15 12.67 18.16 10.04 18.16C7.41 18.16 7.04 18.16 6.04 18.1C5.38089 18.1123 4.72459 18.0109 4.1 17.8C3.68578 17.6281 3.31136 17.3728 3 17.05C2.66809 16.7287 2.41484 16.3352 2.26 15.9C2.01586 15.2952 1.88044 14.6519 1.86 14C1.86 13 1.8 12.63 1.8 10C1.8 7.37 1.8 7 1.86 6C1.86448 5.35106 1.98295 4.70795 2.21 4.1C2.38605 3.67791 2.65627 3.30166 3 3C3.30381 2.65617 3.67929 2.3831 4.1 2.2C4.70955 1.98004 5.352 1.86508 6 1.86C7 1.86 7.37 1.8 10 1.8C12.63 1.8 13 1.8 14 1.86C14.6348 1.86728 15.2637 1.98225 15.86 2.2C16.3144 2.36865 16.7223 2.64285 17.05 3C17.3777 3.30718 17.6338 3.68273 17.8 4.1C18.0223 4.70893 18.1373 5.35178 18.14 6C18.19 7 18.2 7.37 18.2 10C18.2 12.63 18.19 13 18.14 14ZM10 4.87C8.98581 4.87198 7.99496 5.17453 7.15265 5.73942C6.31035 6.30431 5.65438 7.1062 5.26763 8.04375C4.88089 8.98131 4.78072 10.0125 4.97979 11.0069C5.17886 12.0014 5.66824 12.9145 6.38608 13.631C7.10392 14.3474 8.01801 14.835 9.01286 15.0321C10.0077 15.2293 11.0387 15.1271 11.9755 14.7385C12.9123 14.35 13.7129 13.6924 14.2761 12.849C14.8394 12.0056 15.14 11.0142 15.14 10C15.1413 9.3251 15.0092 8.65661 14.7512 8.03296C14.4933 7.40931 14.1146 6.84281 13.6369 6.36605C13.1592 5.88929 12.5919 5.51168 11.9678 5.25493C11.3436 4.99818 10.6749 4.86736 10 4.87ZM10 13.33C9.34139 13.33 8.69757 13.1347 8.14995 12.7688C7.60234 12.4029 7.17552 11.8828 6.92348 11.2743C6.67144 10.6659 6.6055 9.99631 6.73398 9.35035C6.86247 8.70439 7.17963 8.11104 7.64533 7.64533C8.11104 7.17963 8.70439 6.86247 9.35035 6.73398C9.99631 6.6055 10.6659 6.67144 11.2743 6.92348C11.8828 7.17552 12.4029 7.60234 12.7688 8.14995C13.1347 8.69757 13.33 9.34139 13.33 10C13.33 10.4373 13.2439 10.8703 13.0765 11.2743C12.9092 11.6784 12.6639 12.0454 12.3547 12.3547C12.0454 12.6639 11.6784 12.9092 11.2743 13.0765C10.8703 13.2439 10.4373 13.33 10 13.33Z" />
    </symbol>

    <symbol id="arrow-bottom" viewBox="0 0 16 10">
        <path d="M7.11323 9.2309L0.324654 2.00808C-0.107404 1.54862 -0.107404 0.803689 0.324655 0.344454C0.756329 -0.114819 1.45646 -0.114819 1.8881 0.344454L7.89495 6.73553L13.9016 0.34464C14.3334 -0.114632 15.0335 -0.114632 15.4652 0.34464C15.897 0.803913 15.897 1.54881 15.4652 2.00827L8.6765 9.23108C8.46056 9.46072 8.17784 9.57541 7.89498 9.57541C7.61199 9.57541 7.32906 9.4605 7.11323 9.2309Z" />
    </symbol>

    <symbol id="cart" viewBox="0 0 32 34">
        <path d="M7.13008 7.76882H29.7121C30.3649 7.76882 30.8427 8.38411 30.681 9.01655L28.7801 16.4506C28.4405 17.7785 27.2442 18.7074 25.8736 18.7074H9.02537M0 1.49957H4.65214C5.63535 1.49957 6.47274 2.21422 6.62728 3.18521L9.6467 22.1562C9.80125 23.1272 10.6386 23.8418 11.6218 23.8418H28.203" stroke="black" stroke-width="1.5"/>
        <path d="M15.7689 30.2656C15.7689 31.5678 14.7584 32.5758 13.5695 32.5758C12.3807 32.5758 11.3701 31.5678 11.3701 30.2656C11.3701 28.9634 12.3807 27.9554 13.5695 27.9554C14.7584 27.9554 15.7689 28.9634 15.7689 30.2656Z"  stroke-width="1.5"/>
        <path d="M28.746 30.2656C28.746 31.5678 27.7354 32.5758 26.5466 32.5758C25.3577 32.5758 24.3472 31.5678 24.3472 30.2656C24.3472 28.9634 25.3577 27.9554 26.5466 27.9554C27.7354 27.9554 28.746 28.9634 28.746 30.2656Z"  stroke-width="1.5"/>
    </symbol>

    <symbol id="compare" viewBox="0 0 26 25">
        <path d="M25.9558 12.5275L25.9337 12.5386L22.2036 3.25484H23.9056C24.2108 3.25484 24.4582 3.00741 24.4582 2.70223C24.4582 2.39706 24.2108 2.14963 23.9056 2.14963H13.5056V0.552604C13.5056 0.247428 13.2582 0 12.953 0C12.6479 0 12.4004 0.247428 12.4004 0.552604V2.1441H2.00595C1.70078 2.1441 1.45335 2.39153 1.45335 2.69671C1.45335 3.00188 1.70078 3.24931 2.00595 3.24931H3.77981L0.0442083 12.5275C0.0165781 12.5922 0.00158874 12.6617 0 12.732C0 15.2697 2.0572 17.3269 4.5949 17.3269C7.13259 17.3269 9.1898 15.2697 9.1898 12.732C9.18821 12.6617 9.17322 12.5922 9.14559 12.5275L5.41552 3.24378H12.4004V20.3303C9.76451 20.5292 7.70329 22.1318 7.70329 24.0714C7.70329 24.3766 7.95072 24.624 8.2559 24.624H17.6502C17.9553 24.624 18.2028 24.3766 18.2028 24.0714C18.2028 22.1318 16.1416 20.5292 13.5056 20.3303V3.24378H20.5624L16.8544 12.5275C16.8268 12.5922 16.8118 12.6617 16.8102 12.732C16.8102 15.2697 18.8674 17.3269 21.4051 17.3269C23.9428 17.3269 26 15.2697 26 12.732C25.9984 12.6617 25.9834 12.5922 25.9558 12.5275ZM4.59214 16.23C2.88058 16.2276 1.42295 14.9852 1.14942 13.2956H8.01275C7.74059 14.977 6.29533 16.2168 4.59214 16.23ZM7.81382 12.1904H1.38151L4.60319 4.17216L7.81382 12.1904ZM16.9981 23.5188H8.90244C9.31137 22.3307 10.9968 21.4134 12.9475 21.4134C14.8982 21.4134 16.5892 22.3307 16.9981 23.5188ZM21.3802 4.17768L24.5909 12.1904H18.1586L21.3802 4.17768ZM21.3802 16.23V16.2355C19.6752 16.2219 18.2294 14.9792 17.9596 13.2956H24.823C24.5494 14.9852 23.0918 16.2276 21.3802 16.23Z" />
    </symbol>

    <symbol id="favorite" viewBox="0 0 28 27">
        <path d="M20.1004 0C17.7169 0 15.4856 1.07339 14 2.87184C12.5144 1.07333 10.2832 0 7.89957 0C3.54375 0 0 3.52462 0 7.85705C0 11.2495 2.03385 15.1734 6.04492 19.5198C9.13175 22.8646 12.4897 25.4544 13.4454 26.1685L13.9998 26.5828L14.5543 26.1686C15.5099 25.4545 18.868 22.8647 21.9549 19.52C25.9661 15.1736 28 11.2496 28 7.85705C28 3.52462 24.4562 0 20.1004 0ZM20.5948 18.2782C18.0558 21.0293 15.3242 23.2533 13.9998 24.2783C12.6755 23.2533 9.944 21.0293 7.40498 18.2781C3.76837 14.3375 1.84615 10.734 1.84615 7.85705C1.84615 4.53717 4.56172 1.83622 7.89957 1.83622C10.0961 1.83622 12.1243 3.02694 13.1927 4.94377L14 6.3923L14.8073 4.94377C15.8756 3.027 17.9038 1.83622 20.1004 1.83622C23.4383 1.83622 26.1538 4.53711 26.1538 7.85705C26.1538 10.7341 24.2316 14.3377 20.5948 18.2782Z" />
    </symbol>

    <symbol id="footer-clock" viewBox="0 0 16 16">
        <circle cx="8" cy="8" r="7.5" stroke="white"/>
        <rect width="1" height="5" rx="0.5" transform="matrix(-1 0 0 1 8 4)" fill="white"/>
        <rect width="1" height="4" rx="0.5" transform="matrix(-4.37114e-08 1 1 4.37114e-08 7 8)" fill="white"/>
    </symbol>

    <symbol id="footer-location" viewBox="0 0 11 17">
        <path d="M5.5 0C2.4673 0 0 2.60071 0 5.7974C0 6.87745 0.283831 7.93148 0.820997 8.84592L5.18693 16.262C5.27056 16.4041 5.4179 16.4904 5.57636 16.4904C5.57758 16.4904 5.57877 16.4904 5.57999 16.4904C5.73983 16.489 5.88748 16.4001 5.96958 16.2555L10.2242 8.76759C10.7318 7.87248 11 6.8454 11 5.7974C11 2.60071 8.5327 0 5.5 0ZM9.43757 8.27153L5.56942 15.0792L1.6001 8.33685C1.15298 7.57571 0.910556 6.6976 0.910556 5.7974C0.910556 3.13349 2.97275 0.959791 5.5 0.959791C8.02725 0.959791 10.0864 3.13349 10.0864 5.7974C10.0864 6.6709 9.85994 7.52657 9.43757 8.27153Z" />
        <path d="M5.50014 2.44336C3.8153 2.44336 2.44458 3.81328 2.44458 5.49713C2.44458 7.17022 3.793 8.5509 5.50014 8.5509C7.22832 8.5509 8.55569 7.15183 8.55569 5.49713C8.55569 3.81328 7.18497 2.44336 5.50014 2.44336ZM5.50014 7.53976C4.37104 7.53976 3.45631 6.62251 3.45631 5.49713C3.45631 4.37456 4.37691 3.4545 5.50014 3.4545C6.62336 3.4545 7.54057 4.37456 7.54057 5.49713C7.54057 6.60609 6.64712 7.53976 5.50014 7.53976Z" />
    </symbol>

    <symbol id="search" viewBox="0 0 50 50">
        <path d="M 21 3 C 11.621094 3 4 10.621094 4 20 C 4 29.378906 11.621094 37 21 37 C 24.710938 37 28.140625 35.804688 30.9375 33.78125 L 44.09375 46.90625 L 46.90625 44.09375 L 33.90625 31.0625 C 36.460938 28.085938 38 24.222656 38 20 C 38 10.621094 30.378906 3 21 3 Z M 21 5 C 29.296875 5 36 11.703125 36 20 C 36 28.296875 29.296875 35 21 35 C 12.703125 35 6 28.296875 6 20 C 6 11.703125 12.703125 5 21 5 Z"/>
    </symbol>

    <symbol id="logoZ" viewBox="0 0 190 43">
        <path fill-rule="evenodd" clip-rule="evenodd" d="M95.9175 38.3538C95.9175 38.3538 97.0437 37.8078 99.019 37.0732C100.037 37.56 102.267 38.5741 104.427 39.1981C107.351 40.0425 109.299 39.9125 112.028 39.9125C114.756 39.9125 118.653 39.4578 118.653 39.4578C118.653 39.4578 118.069 37.3144 118.004 35.7554C117.939 34.1961 117.939 33.9364 117.939 33.9364C117.939 33.9364 117.354 36.1451 117.484 37.3144C117.614 38.4834 117.614 38.8734 117.614 38.8734C117.614 38.8734 112.482 39.3931 108.845 39.0031C105.207 38.6134 102.998 38.2234 101.439 37.7041C100.58 37.4175 99.7608 37.171 99.198 37.0069C101.954 35.9923 106.267 34.6479 111.443 33.8717C120.537 32.5074 118.718 32.962 118.718 32.962C118.718 32.962 118.913 32.5723 120.082 32.4427C121.252 32.3127 133.204 31.728 136.907 31.9877C140.61 32.2474 150.808 32.7673 152.302 33.7417C153.796 34.716 154.381 35.6904 153.926 38.0938C153.472 40.4974 152.562 42.8361 151.718 42.3162C150.873 41.7965 148.015 39.5881 145.287 39.1981C142.559 38.8084 139.57 38.8734 138.336 39.1981C137.102 39.5231 135.023 40.8222 134.049 40.4975C133.074 40.1728 131.126 38.3538 129.567 39.0034C128.008 39.6531 127.943 39.8478 127.228 40.7571C126.514 41.6668 125.539 42.7062 124.76 41.7318C123.98 40.7572 122.551 40.3025 121.317 40.2375C120.082 40.1728 118.978 40.5625 118.653 40.8871C118.328 41.2121 117.874 41.8615 117.874 41.8615C117.874 41.8615 115.86 41.3421 113.521 41.6018C111.183 41.8615 107.156 42.0565 104.427 41.5368C101.699 41.0171 95.9175 38.3538 95.9175 38.3538ZM120.472 39.1331C120.472 39.1331 123.071 38.6784 124.045 39.3928C125.02 40.1075 125.214 40.6922 126.968 39.2631C128.722 37.8338 129.826 36.7944 131.775 37.8338C133.724 38.8734 134.634 39.5228 136.517 38.5485C138.401 37.5741 142.494 36.5348 145.937 37.9638C149.379 39.3928 152.043 41.6665 152.562 40.2375C153.082 38.8081 153.342 37.2491 150.679 36.6647C148.015 36.0801 144.053 35.4304 140.415 36.0151C136.777 36.5997 136.128 38.2885 134.634 37.8338C133.139 37.3791 131.516 36.0151 129.697 36.7294C127.878 37.4441 126.319 39.6528 124.825 38.9381C123.331 38.2238 122.291 37.5741 121.382 38.0288C120.472 38.4835 120.472 39.1331 120.472 39.1331Z" fill="#1F1C21"/>
        <path d="M1.52161 0.342795V10.0029H1.96659C2.00097 9.44913 2.0866 8.88944 2.2294 8.33008C2.36628 7.76478 2.54314 7.22263 2.76595 6.70296C2.98282 6.18891 3.23406 5.7211 3.51937 5.2983C3.79936 4.88175 4.10748 4.54456 4.4334 4.28175C4.67309 4.08238 4.9812 3.89365 5.36369 3.71115C5.74618 3.52834 6.20305 3.37991 6.73398 3.26585C7.27084 3.14585 7.88177 3.08868 8.578 3.08305H15.8403L0.562256 24.1162L0.63069 24.3219H22.7261V13.2228H22.2808C22.2464 13.8512 22.1833 14.4902 22.092 15.1355C21.9952 15.7808 21.8639 16.409 21.6927 17.0196C21.5155 17.6305 21.2927 18.1958 21.0189 18.7211C20.7449 19.2408 20.4136 19.6917 20.0196 20.0742C19.523 20.5367 18.9977 20.8735 18.4496 21.0907C17.8959 21.3076 17.3478 21.4444 16.7937 21.5016C16.2459 21.5644 15.7206 21.587 15.2238 21.5813H7.6874L22.8973 0.548112L22.7261 0.342795H1.52161ZM29.6115 20.4854C29.6172 20.7648 29.6059 21.0504 29.5718 21.3473C29.5431 21.6441 29.4631 21.941 29.3434 22.2266C29.2234 22.5122 29.0234 22.7804 28.7553 23.0204C28.4981 23.2313 28.2131 23.3972 27.8872 23.5057C27.5678 23.62 27.2366 23.6997 26.8941 23.7453C26.5513 23.791 26.226 23.825 25.9119 23.8425L25.3297 23.8766V24.3219H49.3773V13.9078H48.932L48.8295 14.9702C48.7779 15.5352 48.6979 16.0949 48.5954 16.6655C48.4867 17.2308 48.3154 17.7789 48.0701 18.3098C47.8301 18.8467 47.4764 19.3376 47.0139 19.8001C46.8711 19.9486 46.6599 20.1257 46.3858 20.3251C46.1114 20.5251 45.7636 20.7195 45.3352 20.9076C44.9071 21.102 44.393 21.2617 43.7937 21.3876C43.194 21.5129 42.4978 21.5757 41.704 21.5813H33.8592V4.17925C33.8536 3.97925 33.8648 3.72833 33.8995 3.43146C33.928 3.1346 34.0077 2.82618 34.1277 2.5065C34.2536 2.18651 34.4473 1.90152 34.7158 1.64434C34.9614 1.42747 35.2467 1.26746 35.572 1.15933C35.9036 1.04496 36.2401 0.964981 36.5885 0.919044C36.931 0.873733 37.2566 0.839341 37.5591 0.822153L38.1416 0.788097V0.342795H25.3297V0.788097L25.9119 0.822153C26.2148 0.839341 26.5401 0.873733 26.8885 0.919044C27.2307 0.964981 27.5678 1.04496 27.8988 1.15933C28.2244 1.26746 28.51 1.42747 28.7553 1.64434C29.0234 1.90152 29.2234 2.18651 29.3434 2.5065C29.4631 2.82618 29.5431 3.1346 29.5718 3.43146C29.6059 3.72833 29.6172 3.97925 29.6115 4.17925V20.4854ZM62.0179 0L54.55 18.0189C54.299 18.6067 54.0706 19.1092 53.865 19.5204C53.6594 19.9314 53.4825 20.2742 53.3284 20.5479C53.1741 20.8163 53.0428 21.0335 52.9403 21.2045C52.8316 21.3876 52.6775 21.6101 52.4891 21.8613C52.3006 22.1123 52.061 22.3694 51.7697 22.6319C51.4841 22.8891 51.1419 23.1232 50.7363 23.3288C50.3366 23.5341 49.8741 23.6825 49.3432 23.7741L48.6923 23.8766V24.3219H60.9904V23.8766L60.1339 23.8081C59.7973 23.7853 59.4373 23.7281 59.0548 23.6369C58.6724 23.5456 58.3127 23.4028 57.9699 23.2144C57.6277 23.026 57.3421 22.7804 57.1196 22.4719C56.9365 22.2154 56.8112 21.9129 56.7371 21.5588C56.6684 21.2104 56.6452 20.8504 56.6799 20.4798C56.708 20.1145 56.788 19.7717 56.914 19.4576L58.2158 16.2718H66.9853L68.5268 20.0401C68.6181 20.251 68.6924 20.4798 68.7608 20.7307C68.8293 20.9876 68.8634 21.2335 68.8693 21.4788C68.8634 21.9869 68.7665 22.3922 68.5724 22.6891C68.384 22.9916 68.1384 23.2144 67.8418 23.3628C67.6871 23.4541 67.499 23.5282 67.2822 23.5853C67.065 23.6425 66.8028 23.6941 66.4828 23.7338C66.1631 23.7741 65.7691 23.8081 65.3069 23.8425L64.7928 23.8766V24.3219H78.2215V23.8766L77.6731 23.8425C77.2678 23.8194 76.8678 23.7509 76.4741 23.6369C76.0803 23.5281 75.7204 23.3853 75.3894 23.2144C75.0526 23.0432 74.7782 22.8488 74.5557 22.6438C74.356 22.4438 74.1617 22.181 73.9792 21.8613C73.7907 21.536 73.5851 21.1076 73.3511 20.571C73.1226 20.0401 72.837 19.3608 72.5004 18.5326L64.93 0H62.0179ZM66.129 13.8737H59.072L62.5663 5.44673H62.6347L66.129 13.8737ZM88.5669 3.08305H91.1019C91.3015 3.07743 91.5531 3.08868 91.8556 3.1118C92.1581 3.13461 92.4834 3.18024 92.8374 3.26023C93.1915 3.33429 93.5452 3.45398 93.8993 3.61429C94.259 3.77991 94.5902 4.00239 94.9043 4.28175C95.1899 4.54456 95.4467 4.89298 95.6808 5.33266C95.9089 5.77202 96.1149 6.25763 96.2858 6.78856C96.463 7.32511 96.6055 7.86791 96.7142 8.41571C96.8223 8.96382 96.8911 9.48319 96.9254 9.96881H97.3708V0.342795H75.5154V9.96881H75.9607C75.9947 9.48319 76.0688 8.96382 76.1776 8.41571C76.2804 7.86791 76.4229 7.32511 76.5997 6.78856C76.7713 6.25763 76.9766 5.77202 77.2109 5.33266C77.4394 4.89298 77.6963 4.54456 77.9816 4.28175C78.2956 4.00239 78.6269 3.77991 78.9862 3.61429C79.3406 3.45398 79.6946 3.33429 80.0487 3.26023C80.4024 3.18024 80.7281 3.13461 81.0306 3.1118C81.333 3.08868 81.5843 3.07743 81.7843 3.08305H84.3192V20.4854C84.3249 20.6851 84.3136 20.9363 84.2789 21.2335C84.2505 21.5304 84.1708 21.8385 84.0508 22.1582C83.9311 22.4719 83.7311 22.7632 83.4627 23.0204C83.2171 23.2313 82.9317 23.3972 82.6064 23.5057C82.2749 23.62 81.9383 23.6941 81.5955 23.7453C81.2474 23.791 80.9218 23.8194 80.6193 23.8425L80.0368 23.8766V24.3219H92.8487V23.8766L92.2665 23.8425C91.9637 23.8194 91.6384 23.791 91.2959 23.7453C90.9478 23.6941 90.6106 23.62 90.2797 23.5057C89.9541 23.3972 89.6691 23.2313 89.4231 23.0204C89.155 22.7632 88.9607 22.4719 88.835 22.1582C88.7154 21.8385 88.6353 21.5304 88.6066 21.2335C88.5725 20.9363 88.5613 20.6851 88.5669 20.4854V3.08305ZM132.21 0.342795H121.933L115.527 16.6146H115.424L109.018 0.342795H98.3301V0.788097L98.9126 0.822153C99.2151 0.839341 99.5404 0.873733 99.8888 0.919044C100.231 0.964981 100.568 1.04496 100.899 1.15933C101.225 1.26746 101.51 1.42747 101.756 1.64434C102.024 1.90152 102.224 2.18651 102.344 2.5065C102.463 2.82618 102.543 3.1346 102.572 3.43146C102.606 3.72833 102.618 3.97925 102.612 4.17925V19.8001C102.618 20.0629 102.601 20.3823 102.567 20.7592C102.532 21.136 102.452 21.5185 102.327 21.9013C102.207 22.2838 102.013 22.6091 101.756 22.8835C101.533 23.1004 101.248 23.2772 100.911 23.4144C100.574 23.5513 100.225 23.6541 99.8716 23.7225C99.512 23.791 99.1923 23.8309 98.9126 23.8425L98.3301 23.8766V24.3219H109.874V23.8766L109.292 23.8425C109.012 23.8309 108.693 23.791 108.333 23.7225C107.979 23.6541 107.631 23.5513 107.294 23.4144C106.957 23.2772 106.671 23.1004 106.449 22.8835C106.243 22.6719 106.083 22.4266 105.969 22.141C105.849 21.8557 105.764 21.5644 105.712 21.2616C105.661 20.9648 105.627 20.6851 105.61 20.4282C105.598 20.1654 105.592 19.9601 105.592 19.8001V3.66553H105.695L113.848 24.3219H115.424L123.577 3.66553H123.68V20.4854C123.685 20.6851 123.674 20.9363 123.64 21.2335C123.611 21.5304 123.537 21.8385 123.411 22.1582C123.291 22.4719 123.092 22.7632 122.823 23.0204C122.578 23.2313 122.292 23.3972 121.967 23.5057C121.636 23.62 121.299 23.6941 120.956 23.7453C120.608 23.791 120.283 23.8194 119.98 23.8425L119.398 23.8766V24.3219H132.21V23.8766L131.627 23.8425C131.325 23.8194 130.999 23.791 130.656 23.7453C130.308 23.6941 129.972 23.62 129.646 23.5057C129.315 23.3972 129.029 23.2313 128.784 23.0204C128.515 22.7632 128.322 22.4719 128.196 22.1582C128.076 21.8385 127.996 21.5304 127.967 21.2335C127.939 20.9363 127.922 20.6851 127.928 20.4854V4.17925C127.922 3.97925 127.939 3.72833 127.967 3.43146C127.996 3.1346 128.076 2.82618 128.196 2.5065C128.322 2.18651 128.515 1.90152 128.784 1.64434C129.029 1.42747 129.315 1.26746 129.646 1.15933C129.972 1.04496 130.308 0.964981 130.656 0.919044C130.999 0.873733 131.325 0.839341 131.627 0.822153L132.21 0.788097V0.342795ZM144.781 0L137.314 18.0189C137.063 18.6067 136.834 19.1092 136.629 19.5204C136.423 19.9314 136.246 20.2742 136.092 20.5479C135.938 20.8163 135.806 21.0335 135.704 21.2045C135.595 21.3876 135.441 21.6101 135.253 21.8613C135.064 22.1123 134.825 22.3694 134.533 22.6319C134.248 22.8891 133.905 23.1232 133.5 23.3288C133.1 23.5341 132.638 23.6825 132.107 23.7741L131.456 23.8766V24.3219H143.754V23.8766L142.897 23.8081C142.561 23.7853 142.201 23.7281 141.818 23.6369C141.436 23.5456 141.076 23.4028 140.733 23.2144C140.391 23.026 140.106 22.7804 139.883 22.4719C139.7 22.2154 139.575 21.9129 139.501 21.5588C139.432 21.2104 139.409 20.8504 139.443 20.4798C139.472 20.1145 139.552 19.7717 139.678 19.4576L140.979 16.2718H149.749L151.29 20.0401C151.382 20.251 151.456 20.4798 151.524 20.7307C151.593 20.9876 151.627 21.2335 151.633 21.4788C151.627 21.9869 151.53 22.3922 151.336 22.6891C151.148 22.9916 150.902 23.2144 150.605 23.3628C150.451 23.4541 150.263 23.5282 150.046 23.5853C149.829 23.6425 149.566 23.6941 149.246 23.7338C148.927 23.7741 148.533 23.8081 148.07 23.8425L147.556 23.8766V24.3219H160.985V23.8766L160.437 23.8425C160.031 23.8194 159.631 23.7509 159.238 23.6369C158.844 23.5281 158.484 23.3853 158.153 23.2144C157.816 23.0432 157.542 22.8488 157.319 22.6438C157.12 22.4438 156.926 22.181 156.743 21.8613C156.554 21.536 156.349 21.1076 156.115 20.571C155.886 20.0401 155.601 19.3608 155.264 18.5326L147.694 0H144.781ZM148.893 13.8737H141.836L145.33 5.44673H145.398L148.893 13.8737ZM159.752 0.342795V0.788097L160.403 0.92527C160.819 1.02214 161.248 1.20466 161.687 1.46746C162.127 1.72996 162.549 2.03243 162.954 2.38086C163.36 2.72929 163.72 3.07743 164.034 3.42554L171.947 12.2297L165.267 20.0058C165.153 20.1486 164.987 20.3195 164.782 20.5251C164.576 20.7307 164.348 20.9479 164.108 21.1704C163.863 21.3932 163.634 21.5988 163.412 21.787C163.195 21.9757 163.012 22.1241 162.869 22.2323C162.332 22.6263 161.75 22.9688 161.122 23.2488C160.5 23.5281 159.883 23.7397 159.272 23.8766V24.3219H172.735V23.8766L171.913 23.8081C171.268 23.751 170.771 23.6766 170.417 23.5913C170.069 23.4997 169.835 23.4369 169.72 23.3972C169.475 23.3056 169.246 23.1916 169.03 23.0375C168.813 22.8891 168.63 22.7004 168.493 22.4607C168.356 22.2266 168.287 21.9354 168.282 21.5813C168.287 21.3132 168.361 21.0335 168.499 20.7367C168.636 20.4398 168.79 20.1654 168.967 19.9145C169.144 19.6632 169.292 19.4632 169.412 19.3204L173.763 14.2506L178.456 19.4232C178.701 19.6861 178.93 19.9601 179.147 20.2398C179.363 20.5251 179.546 20.8107 179.683 21.1076C179.82 21.3988 179.889 21.6957 179.894 21.9926C179.889 22.3294 179.797 22.6091 179.615 22.8319C179.437 23.0488 179.198 23.2257 178.901 23.3628C178.587 23.5169 178.222 23.6313 177.817 23.7056C177.411 23.7797 177.006 23.825 176.606 23.8425L175.613 23.8766V24.3219H190V23.8766C189.623 23.8309 189.212 23.7338 188.773 23.5853C188.327 23.4369 187.859 23.2029 187.362 22.8835C186.74 22.4494 186.135 21.9298 185.558 21.3132C184.982 20.702 184.37 20.0282 183.731 19.2864L176.434 11.1331L181.059 5.78953C181.39 5.40704 181.739 5.00144 182.104 4.56739C182.475 4.13334 182.869 3.71114 183.291 3.29991C183.709 2.88898 184.165 2.51804 184.656 2.19211C184.959 1.99837 185.29 1.80963 185.661 1.63308C186.032 1.45621 186.42 1.30777 186.825 1.17621C187.225 1.04496 187.619 0.947789 188.013 0.890603L188.698 0.788097V0.342795H174.927V0.788097L175.783 0.856546C176.412 0.907795 176.926 0.999014 177.325 1.12464C177.725 1.25057 178.033 1.40464 178.25 1.57589C178.502 1.76432 178.684 1.96994 178.787 2.19837C178.89 2.43243 178.941 2.689 178.936 2.98024C178.93 3.32305 178.884 3.62551 178.787 3.89926C178.695 4.168 178.581 4.40208 178.444 4.6077C178.307 4.81332 178.176 4.99017 178.045 5.1386L174.619 9.14665L169.755 3.73395C169.572 3.52833 169.441 3.34586 169.372 3.18586C169.304 3.02618 169.269 2.87775 169.275 2.74056C169.269 2.47776 169.332 2.2212 169.475 1.96995C169.612 1.7184 169.863 1.4959 170.234 1.30185C170.411 1.22154 170.617 1.14746 170.856 1.08496C171.096 1.02215 171.342 0.970602 171.587 0.930915C171.833 0.896541 172.055 0.868108 172.255 0.856546L173.043 0.788097V0.342795H159.752Z" fill="#1F1C21"/>
        <path d="M0.492175 35.6121C0.639046 35.52 0.801537 35.4359 0.979346 35.3575C1.15715 35.28 1.34496 35.2171 1.54246 35.17C1.74151 35.1215 1.94307 35.0978 2.14651 35.0956C2.43025 35.0956 2.67838 35.1446 2.88962 35.2406C3.10274 35.3381 3.2668 35.479 3.38586 35.6649C3.50335 35.8528 3.56398 36.0812 3.56616 36.3512C3.56398 36.5546 3.5171 36.744 3.42116 36.9202C3.3271 37.0958 3.1943 37.2483 3.02431 37.3815C2.85619 37.5143 2.65868 37.618 2.43181 37.6924C2.20744 37.7664 1.96276 37.8039 1.70058 37.8058H1.2431V38.5802H1.71215C1.9162 38.5802 2.11932 38.5939 2.32244 38.6249C2.52743 38.6542 2.7215 38.7049 2.90525 38.7752C3.08712 38.8461 3.25116 38.9399 3.39397 39.0567C3.53678 39.1742 3.65023 39.3189 3.7321 39.4908C3.81616 39.663 3.8574 39.8686 3.85928 40.1051C3.85928 40.3961 3.78897 40.6545 3.65022 40.8792C3.50929 41.1061 3.30585 41.282 3.03836 41.411C2.76805 41.5382 2.44182 41.6045 2.05245 41.607C1.83215 41.6045 1.61278 41.581 1.39559 41.536C1.17685 41.491 0.971224 41.4323 0.779979 41.3604C0.585922 41.2879 0.416243 41.2095 0.269372 41.1254L0 41.9235C0.30843 42.1032 0.639055 42.236 0.993109 42.3185C1.34654 42.4001 1.70464 42.4416 2.06463 42.4395C2.35587 42.4395 2.6393 42.4123 2.9168 42.357C3.19648 42.3023 3.45616 42.2182 3.69928 42.1032C3.94333 41.9879 4.15646 41.8395 4.34239 41.6592C4.5277 41.4773 4.67269 41.2626 4.778 41.0105C4.88362 40.7583 4.93645 40.4686 4.93832 40.1404C4.93082 39.7586 4.84426 39.4286 4.67614 39.1474C4.50802 38.8658 4.28115 38.6389 3.99241 38.4708C3.70273 38.3027 3.37461 38.1989 3.00305 38.1574V38.1346C3.31179 38.0618 3.58741 37.9346 3.83146 37.7549C4.07646 37.5749 4.27209 37.3521 4.41427 37.0858C4.55708 36.8205 4.62958 36.5252 4.63364 36.1987C4.62958 35.7899 4.53176 35.4415 4.33645 35.1543C4.14083 34.8672 3.87085 34.6459 3.52304 34.4934C3.17461 34.3412 2.77212 34.2647 2.31056 34.2631C1.8787 34.2647 1.48933 34.3219 1.1434 34.4287C0.799663 34.5387 0.492171 34.6809 0.222803 34.8612L0.492175 35.6121ZM6.85046 34.4034V37.7355C6.85265 38.0539 6.84639 38.3827 6.83076 38.7189C6.81701 39.0552 6.78764 39.3799 6.74264 39.6942C6.69608 40.0092 6.62734 40.293 6.53359 40.547C6.43984 40.8008 6.31484 41.0045 6.15828 41.1607C6.06047 41.2567 5.93954 41.3442 5.79079 41.4248C5.64174 41.5032 5.48737 41.5558 5.32518 41.5833L5.45424 42.4042C5.60892 42.4026 5.75923 42.3848 5.91016 42.3479C6.05859 42.3123 6.19922 42.2654 6.33047 42.2085C6.46109 42.152 6.57452 42.0932 6.67421 42.0289C6.89358 41.8764 7.07545 41.6829 7.2217 41.4501C7.36669 41.2154 7.482 40.9517 7.56762 40.6586C7.65418 40.3633 7.71856 40.0498 7.75949 39.7177C7.80262 39.3833 7.8298 39.0436 7.84168 38.6936C7.85543 38.3433 7.86136 37.9974 7.85918 37.653V35.2603H10.4638V42.3104H11.496V34.4034H6.85046ZM17.3499 39.8236L18.1945 42.3104H19.2854L16.5874 34.4034H15.3674L12.6691 42.3104H13.725L14.5459 39.8236H17.3499ZM14.7571 39.0258L15.5315 36.7384C15.6134 36.4959 15.6859 36.2552 15.7487 36.0127C15.813 35.7721 15.8737 35.5356 15.9305 35.3068H15.9537C16.0105 35.5337 16.0733 35.7687 16.1377 36.0071C16.2024 36.2452 16.2783 36.4918 16.364 36.7496L17.1505 39.0258H14.7571ZM21.9479 42.3104H22.9801V35.2718H25.3972V34.4034H19.5436V35.2718H21.9479V42.3104ZM29.4671 34.2631C28.9374 34.2647 28.4487 34.3628 28.0049 34.5584C27.559 34.7537 27.174 35.0334 26.8459 35.3968C26.5172 35.7624 26.2631 36.1987 26.0828 36.7071C25.9009 37.2174 25.8094 37.7861 25.8072 38.4161C25.8094 39.0158 25.8953 39.5611 26.0675 40.0539C26.2397 40.5451 26.4818 40.9689 26.7968 41.3254C27.1118 41.6811 27.4871 41.9545 27.9209 42.1479C28.3549 42.3398 28.834 42.4376 29.3618 42.4395C29.7668 42.4395 30.1536 42.3807 30.5192 42.2654C30.8849 42.152 31.2214 41.9798 31.5261 41.7532C31.8314 41.5264 32.0973 41.247 32.3217 40.9108C32.547 40.5764 32.7233 40.1892 32.8457 39.7489C32.9689 39.3089 33.0317 38.8168 33.0335 38.2749C33.0317 37.6824 32.9476 37.143 32.7814 36.6543C32.6154 36.1637 32.3764 35.7409 32.0639 35.3853C31.7529 35.0278 31.3777 34.7518 30.9398 34.5584C30.5036 34.3643 30.0114 34.2647 29.4671 34.2631ZM29.4321 35.0956C29.7724 35.0978 30.0774 35.1584 30.3477 35.2799C30.6192 35.399 30.8536 35.5649 31.0552 35.7743C31.2567 35.9852 31.4248 36.2281 31.5576 36.5015C31.6908 36.7752 31.7904 37.0687 31.8567 37.3774C31.9211 37.6883 31.9545 38.0033 31.9545 38.3221C31.9545 38.7736 31.8979 39.198 31.7864 39.593C31.6745 39.988 31.5105 40.3355 31.2958 40.6367C31.0786 40.938 30.8145 41.1745 30.4996 41.3467C30.1852 41.5164 29.8252 41.6029 29.4205 41.607C29.0958 41.6045 28.8012 41.5482 28.5349 41.4364C28.269 41.3229 28.0343 41.1664 27.8293 40.9654C27.6237 40.7639 27.4515 40.5273 27.3127 40.2595C27.1721 39.9895 27.0662 39.6964 26.9943 39.3798C26.924 39.0633 26.8865 38.7342 26.8865 38.3924C26.8865 38.0465 26.9199 37.7102 26.9887 37.3871C27.0546 37.0646 27.1568 36.7637 27.2931 36.4862C27.4284 36.2103 27.5984 35.9677 27.8015 35.759C28.0049 35.5515 28.2437 35.3893 28.5155 35.2734C28.7871 35.1565 29.0918 35.0978 29.4321 35.0956ZM33.491 34.4034L36.1188 39.753C36.1656 39.8452 36.195 39.9252 36.2028 39.9977C36.2103 40.0695 36.195 40.1479 36.1541 40.2342C36.0897 40.377 36.0113 40.5273 35.9175 40.6817C35.8235 40.8383 35.7141 40.9826 35.5869 41.1198C35.4597 41.2567 35.3151 41.3661 35.1529 41.452C34.9904 41.5361 34.8066 41.5811 34.6054 41.5833C34.5179 41.5833 34.4435 41.581 34.3807 41.5751C34.3179 41.5695 34.2651 41.5595 34.2182 41.5482L34.1245 42.3807C34.1891 42.4042 34.2673 42.422 34.3588 42.4335C34.4526 42.4451 34.566 42.451 34.6991 42.451C35.0491 42.451 35.3722 42.3691 35.6653 42.2066C35.9582 42.0426 36.2322 41.8004 36.4822 41.4773C36.6232 41.2936 36.7603 41.0864 36.891 40.852C37.0241 40.617 37.1513 40.3689 37.2744 40.1051C37.3978 39.8411 37.5169 39.5711 37.6303 39.2974C37.7453 39.0217 37.855 38.7524 37.9609 38.4861L39.6265 34.4034H38.5468L37.3038 37.7589C37.21 38.0383 37.1238 38.2961 37.0453 38.5311C36.9675 38.7636 36.8928 38.9808 36.8225 39.1783H36.7875C36.6994 38.9499 36.6094 38.7205 36.5156 38.4902C36.4219 38.2611 36.3238 38.0287 36.2244 37.7943L34.6526 34.4034H33.491ZM45.7848 41.2429C45.646 41.3092 45.4876 41.3679 45.3079 41.417C45.1279 41.4657 44.9367 41.5032 44.7329 41.5301C44.5279 41.5579 44.3204 41.571 44.1076 41.571C43.468 41.5676 42.9227 41.4382 42.473 41.1801C42.0233 40.9223 41.679 40.5567 41.4405 40.0817C41.2024 39.6083 41.0824 39.0452 41.0808 38.3924C41.0824 37.8718 41.1568 37.4108 41.3018 37.0059C41.448 36.6034 41.6577 36.2609 41.9271 35.9834C42.1989 35.7037 42.5236 35.4928 42.9014 35.3478C43.2802 35.2034 43.7005 35.1312 44.1664 35.1312C44.4967 35.1331 44.7954 35.164 45.0632 35.2253C45.3317 35.2856 45.5601 35.364 45.7495 35.4593L46.0076 34.6262C45.9176 34.5775 45.787 34.5268 45.6167 34.4722C45.4467 34.419 45.2379 34.3725 44.9914 34.335C44.7426 34.2959 44.4555 34.2768 44.1305 34.2747C43.5152 34.2768 42.9561 34.3765 42.4511 34.574C41.9468 34.7715 41.5127 35.0531 41.1471 35.4187C40.7815 35.7843 40.4999 36.2218 40.3024 36.7284C40.1031 37.2368 40.0037 37.804 40.0012 38.4274C40.0052 39.0786 40.1031 39.6533 40.2965 40.1536C40.4902 40.6523 40.7618 41.0707 41.1143 41.4095C41.4643 41.7492 41.8749 42.0054 42.3474 42.1792C42.8189 42.3513 43.3349 42.4395 43.8964 42.4395C44.2186 42.4376 44.5142 42.4198 44.7842 42.3848C45.0536 42.3479 45.2926 42.3007 45.4957 42.2442C45.6988 42.1873 45.8614 42.1285 45.9845 42.0639L45.7848 41.2429ZM48.7756 42.3104H49.8081V35.2718H52.2253V34.4034H46.3713V35.2718H48.7756V42.3104ZM56.2951 34.2631C55.7655 34.2647 55.2767 34.3628 54.8327 34.5584C54.3871 34.7537 54.0021 35.0334 53.6737 35.3968C53.3449 35.7624 53.0912 36.1987 52.9109 36.7071C52.729 37.2174 52.6374 37.7861 52.6352 38.4161C52.6374 39.0158 52.723 39.5611 52.8952 40.0539C53.0674 40.5451 53.3099 40.9689 53.6249 41.3254C53.9399 41.6811 54.3152 41.9545 54.7486 42.1479C55.1827 42.3398 55.6617 42.4376 56.1898 42.4395C56.5945 42.4395 56.9814 42.3807 57.347 42.2654C57.7126 42.152 58.0495 41.9798 58.3542 41.7532C58.6592 41.5264 58.9254 41.247 59.1498 40.9108C59.3751 40.5764 59.551 40.1892 59.6738 39.7489C59.7969 39.3089 59.8597 38.8168 59.8613 38.2749C59.8597 37.6824 59.7757 37.143 59.6091 36.6543C59.4435 36.1637 59.2045 35.7409 58.892 35.3853C58.581 35.0278 58.2054 34.7518 57.7679 34.5584C57.3317 34.3643 56.8392 34.2647 56.2951 34.2631ZM56.2601 35.0956C56.6004 35.0978 56.9054 35.1584 57.1754 35.2799C57.4473 35.399 57.6817 35.5649 57.8832 35.7743C58.0848 35.9852 58.2529 36.2281 58.3857 36.5015C58.5188 36.7752 58.6185 37.0687 58.6845 37.3774C58.7491 37.6883 58.7826 38.0033 58.7826 38.3221C58.7826 38.7736 58.726 39.198 58.6145 39.593C58.5026 39.988 58.3385 40.3355 58.1239 40.6367C57.9067 40.938 57.6426 41.1745 57.3276 41.3467C57.0132 41.5164 56.6533 41.6029 56.2486 41.607C55.9239 41.6045 55.6289 41.5482 55.363 41.4364C55.097 41.3229 54.8621 41.1664 54.6571 40.9654C54.4518 40.7639 54.2796 40.5273 54.1408 40.2595C54.0002 39.9895 53.8943 39.6964 53.8224 39.3798C53.7521 39.0633 53.7146 38.7342 53.7146 38.3924C53.7146 38.0465 53.748 37.7102 53.8165 37.3871C53.8827 37.0646 53.9846 36.7637 54.1212 36.4862C54.2565 36.2103 54.4261 35.9677 54.6296 35.759C54.8327 35.5515 55.0718 35.3893 55.3436 35.2734C55.6152 35.1565 55.9198 35.0978 56.2601 35.0956ZM61.1869 42.2867C61.3572 42.3104 61.5759 42.3316 61.8419 42.3513C62.1081 42.3691 62.4191 42.3788 62.7706 42.3807C63.4162 42.3807 63.9637 42.322 64.4134 42.201C64.8646 42.0795 65.2246 41.8942 65.4924 41.642C65.6996 41.4542 65.8662 41.2292 65.9868 40.9654C66.1083 40.7011 66.1705 40.3983 66.173 40.058C66.1705 39.7648 66.1199 39.5048 66.0243 39.2795C65.9265 39.0552 65.7993 38.8593 65.6393 38.6993C65.4787 38.5368 65.3046 38.4061 65.1131 38.3043C64.9234 38.2024 64.7318 38.1305 64.5424 38.0874V38.0521C64.818 37.9524 65.0543 37.8155 65.254 37.6433C65.453 37.4712 65.6074 37.2721 65.7152 37.0452C65.8227 36.8183 65.8774 36.5759 65.8793 36.3156C65.8774 36.0046 65.8171 35.7312 65.6996 35.4987C65.5805 35.2659 65.4181 35.0725 65.2109 34.92C65.0524 34.7868 64.8706 34.6775 64.6656 34.5934C64.4599 34.5093 64.2234 34.4468 63.9596 34.4059C63.6937 34.3643 63.3909 34.3447 63.0522 34.3447C62.8156 34.3447 62.5831 34.3528 62.3544 34.3665C62.1253 34.3822 61.9122 34.4019 61.7131 34.4287C61.5116 34.4547 61.3375 34.4859 61.1869 34.5209V42.2867ZM62.2075 35.2015C62.2878 35.1818 62.3994 35.1665 62.5437 35.1525C62.6884 35.1387 62.8784 35.1312 63.1109 35.1312C63.4572 35.129 63.76 35.174 64.0162 35.2622C64.2746 35.35 64.4756 35.4887 64.6184 35.6806C64.7612 35.8699 64.8337 36.1165 64.8352 36.4215C64.8352 36.6777 64.7668 36.9065 64.6321 37.1077C64.4974 37.3071 64.3034 37.4655 64.0496 37.5805C63.7975 37.698 63.4921 37.7568 63.1347 37.7589H62.2075V35.2015ZM62.2075 38.5214H63.0522C63.3337 38.5214 63.5959 38.5508 63.8422 38.6096C64.0868 38.6683 64.3034 38.7599 64.4912 38.883C64.6787 39.0061 64.8256 39.1645 64.9315 39.358C65.0368 39.5495 65.0915 39.7805 65.0934 40.0464C65.0915 40.3314 65.0346 40.5745 64.9252 40.7714C64.8159 40.9689 64.6656 41.1279 64.4756 41.247C64.2837 41.366 64.069 41.452 63.8265 41.5048C63.5844 41.5579 63.3297 41.5851 63.0637 41.5833C62.8825 41.5833 62.72 41.5792 62.579 41.5735C62.4362 41.5654 62.3131 41.5539 62.2075 41.536V38.5214ZM72.8591 41.2429C72.7204 41.3092 72.5619 41.3679 72.3826 41.417C72.2023 41.4657 72.011 41.5032 71.8073 41.5301C71.6023 41.5579 71.3951 41.571 71.182 41.571C70.5423 41.5676 69.997 41.4382 69.5473 41.1801C69.0976 40.9223 68.7533 40.5567 68.5152 40.0817C68.2767 39.6083 68.157 39.0452 68.1552 38.3924C68.157 37.8718 68.2311 37.4108 68.3764 37.0059C68.5227 36.6034 68.732 36.2609 69.0017 35.9834C69.2733 35.7037 69.5979 35.4928 69.9757 35.3478C70.3545 35.2034 70.7748 35.1312 71.2407 35.1312C71.5713 35.1331 71.8701 35.164 72.1379 35.2253C72.406 35.2856 72.6347 35.364 72.8241 35.4593L73.0819 34.6262C72.9922 34.5775 72.8616 34.5268 72.691 34.4722C72.5213 34.419 72.3122 34.3725 72.0657 34.335C71.8169 34.2959 71.5298 34.2768 71.2051 34.2747C70.5895 34.2768 70.0304 34.3765 69.5254 34.574C69.0211 34.7715 68.587 35.0531 68.2214 35.4187C67.8558 35.7843 67.5742 36.2218 67.3767 36.7284C67.1777 37.2368 67.078 37.804 67.0758 38.4274C67.0796 39.0786 67.1777 39.6533 67.3711 40.1536C67.5646 40.6523 67.8361 41.0707 68.1886 41.4095C68.5386 41.7492 68.9492 42.0054 69.422 42.1792C69.8936 42.3513 70.4092 42.4395 70.9707 42.4395C71.2932 42.4376 71.5885 42.4198 71.8585 42.3848C72.1279 42.3479 72.3669 42.3007 72.5701 42.2442C72.7735 42.1873 72.9357 42.1285 73.0588 42.0639L72.8591 41.2429ZM74.3488 34.4034V42.3104H75.3694V38.6855H75.6981C76.0303 38.6855 76.3159 38.7286 76.5543 38.8127C76.7909 38.8986 76.9943 39.0177 77.1606 39.1742C77.3265 39.3286 77.4674 39.5145 77.5827 39.7298C77.7002 39.9445 77.8021 40.183 77.8918 40.4448C77.9662 40.6545 78.0405 40.8676 78.1146 41.0845C78.189 41.3035 78.2671 41.5164 78.349 41.726C78.4315 41.9332 78.5211 42.1285 78.6189 42.3104H79.7102C79.5983 42.076 79.4949 41.8373 79.4008 41.597C79.3071 41.3542 79.2174 41.1082 79.1274 40.8539C79.0377 40.5998 78.9415 40.3395 78.8418 40.0695C78.744 39.8017 78.6346 39.5536 78.5115 39.3252C78.3905 39.0961 78.2452 38.8927 78.0755 38.7149C77.9074 38.5368 77.7058 38.3883 77.4693 38.2708C77.2327 38.1533 76.9512 38.0733 76.6246 38.0287L79.6161 34.4034H78.3961L75.6862 37.9111H75.3694V34.4034H74.3488ZM80.7067 34.4034V42.3104H81.7976L84.2729 38.3686C84.5469 37.933 84.8091 37.4908 85.0629 37.0434C85.3175 36.5956 85.5441 36.154 85.7394 35.7174L85.7744 35.7296C85.7475 36.0599 85.7279 36.3899 85.7141 36.7202C85.7004 37.053 85.6929 37.4008 85.6869 37.7624C85.6829 38.1264 85.6807 38.5189 85.6807 38.9433V42.3104H86.6428V34.4034H85.6225L83.0651 38.4743C82.7776 38.9417 82.5117 39.393 82.267 39.827C82.0229 40.2595 81.8042 40.6817 81.6101 41.0904L81.5748 41.0789C81.5986 40.7289 81.6164 40.3748 81.6295 40.0189C81.6436 39.663 81.6533 39.2973 81.6614 38.9205C81.667 38.5427 81.6689 38.1477 81.6689 37.7355V34.4034H80.7067ZM92.5086 37.7589H89.4468V35.2603H92.6964V34.4034H88.4143V42.3104H92.8723V41.4542H89.4468V38.6036H92.5086V37.7589ZM158.84 34.4034V42.3104H159.872V38.6036H163.697V42.3104H164.729V34.4034H163.697V37.7118H159.872V34.4034H158.84ZM169.691 34.2631C169.161 34.2647 168.672 34.3628 168.228 34.5584C167.783 34.7537 167.397 35.0334 167.069 35.3968C166.74 35.7624 166.486 36.1987 166.306 36.7071C166.124 37.2174 166.033 37.7861 166.031 38.4161C166.033 39.0158 166.119 39.5611 166.291 40.0539C166.463 40.5451 166.705 40.9689 167.02 41.3254C167.335 41.6811 167.71 41.9545 168.144 42.1479C168.578 42.3398 169.057 42.4376 169.585 42.4395C169.99 42.4395 170.377 42.3807 170.743 42.2654C171.108 42.152 171.445 41.9798 171.749 41.7532C172.055 41.5264 172.321 41.247 172.545 40.9108C172.77 40.5764 172.947 40.1892 173.069 39.7489C173.192 39.3089 173.255 38.8168 173.257 38.2749C173.255 37.6824 173.171 37.143 173.005 36.6543C172.839 36.1637 172.6 35.7409 172.287 35.3853C171.976 35.0278 171.601 34.7518 171.163 34.5584C170.727 34.3643 170.235 34.2647 169.691 34.2631ZM169.655 35.0956C169.996 35.0978 170.301 35.1584 170.571 35.2799C170.843 35.399 171.077 35.5649 171.279 35.7743C171.48 35.9852 171.648 36.2281 171.781 36.5015C171.914 36.7752 172.014 37.0687 172.08 37.3774C172.144 37.6883 172.178 38.0033 172.178 38.3221C172.178 38.7736 172.121 39.198 172.01 39.593C171.898 39.988 171.734 40.3355 171.519 40.6367C171.302 40.938 171.038 41.1745 170.723 41.3467C170.409 41.5164 170.049 41.6029 169.644 41.607C169.319 41.6045 169.024 41.5482 168.759 41.4364C168.492 41.3229 168.258 41.1664 168.053 40.9654C167.847 40.7639 167.675 40.5273 167.536 40.2595C167.395 39.9895 167.29 39.6964 167.218 39.3798C167.147 39.0633 167.11 38.7342 167.11 38.3924C167.11 38.0465 167.143 37.7102 167.212 37.3871C167.278 37.0646 167.38 36.7637 167.516 36.4862C167.652 36.2103 167.822 35.9677 168.025 35.759C168.228 35.5515 168.467 35.3893 168.739 35.2734C169.011 35.1565 169.315 35.0978 169.655 35.0956ZM173.949 34.4034L176.741 38.0405C176.434 38.0793 176.17 38.1533 175.945 38.2652C175.722 38.3767 175.529 38.5189 175.367 38.6952C175.206 38.8714 175.065 39.0764 174.944 39.3089C174.825 39.542 174.715 39.8001 174.618 40.0817C174.534 40.3279 174.452 40.5764 174.372 40.8267C174.293 41.0767 174.209 41.3254 174.121 41.5735C174.033 41.8217 173.932 42.0679 173.82 42.3104H174.864C174.95 42.1326 175.028 41.9351 175.103 41.7198C175.175 41.5048 175.246 41.2895 175.312 41.0708C175.378 40.852 175.443 40.6464 175.509 40.457C175.601 40.1852 175.701 39.943 175.806 39.7236C175.914 39.5064 176.041 39.3211 176.19 39.1667C176.338 39.0121 176.522 38.8927 176.741 38.8105C176.958 38.7286 177.224 38.6855 177.539 38.6855H177.903V42.3104H178.888V38.6855H179.24C179.555 38.6855 179.82 38.7286 180.039 38.8105C180.256 38.8927 180.44 39.0121 180.589 39.1667C180.738 39.3211 180.864 39.5064 180.972 39.7236C181.077 39.943 181.178 40.1852 181.269 40.457C181.332 40.6464 181.395 40.852 181.461 41.0708C181.525 41.2895 181.595 41.5048 181.668 41.7198C181.742 41.9351 181.825 42.1326 181.914 42.3104H182.958C182.851 42.0679 182.753 41.8217 182.669 41.5735C182.585 41.3254 182.503 41.0748 182.427 40.8226C182.35 40.5704 182.269 40.3201 182.184 40.0695C182.087 39.7864 181.977 39.5283 181.856 39.2933C181.734 39.0592 181.592 38.8536 181.427 38.6758C181.263 38.5002 181.068 38.3574 180.841 38.2474C180.615 38.1402 180.346 38.0693 180.038 38.0405L182.841 34.4034H181.657L179.205 37.9111H178.888V34.4034H177.903V37.9111H177.585L175.134 34.4034H173.949ZM183.979 34.4034V42.3104H185.07L187.545 38.3686C187.819 37.933 188.081 37.4908 188.335 37.0434C188.589 36.5956 188.816 36.154 189.011 35.7174L189.046 35.7296C189.019 36.0599 189 36.3899 188.986 36.7202C188.972 37.053 188.965 37.4008 188.959 37.7624C188.955 38.1264 188.952 38.5189 188.952 38.9433V42.3104H189.915V34.4034H188.894L186.337 38.4743C186.05 38.9417 185.783 39.393 185.539 39.827C185.295 40.2595 185.076 40.6817 184.882 41.0904L184.847 41.0789C184.87 40.7289 184.888 40.3748 184.902 40.0189C184.915 39.663 184.925 39.2973 184.933 38.9205C184.939 38.5427 184.941 38.1477 184.941 37.7355V34.4034H183.979Z" fill="#1F1C21"/>
    </symbol>

    <symbol></symbol>

    <symbol></symbol>

    <symbol></symbol>

    
    





















</svg>

